<svg width="46" height="61" fill="none" xmlns="http://www.w3.org/2000/svg"><path d="M27.617 45.64h-9.234v9.987h9.234V45.64z" fill="#FDCC9B"/><path d="M18.384 46.817s3.884 2.388 9.233 1.835V45.64h-9.233v1.177zM5.069 35.119c2.488 0 4.505-2.223 4.505-4.964 0-2.742-2.017-4.964-4.505-4.964S.563 27.413.563 30.155c0 2.741 2.018 4.964 4.506 4.964zm35.862 0c2.489 0 4.506-2.223 4.506-4.964 0-2.742-2.017-4.964-4.505-4.964-2.489 0-4.506 2.222-4.506 4.964 0 2.741 2.017 4.964 4.505 4.964z" fill="#FCBC85"/><path d="M40.913 20.673c0-7.311-5.54-12.661-17.913-12.661-12.373 0-17.913 5.35-17.913 12.661 0 7.312-1.292 26.572 17.913 26.572 19.206 0 17.913-19.26 17.913-26.572z" fill="#FDCC9B"/><path d="M14.275 31.017c1.07 0 1.94-.918 1.94-2.05 0-1.134-.87-2.052-1.94-2.052-1.07 0-1.94.918-1.94 2.051s.87 2.051 1.94 2.051z" fill="#3B2519"/><path d="M13.43 28.62c.32 0 .58-.25.58-.56a.57.57 0 0 0-.58-.56.57.57 0 0 0-.58.56c0 .31.26.56.58.56z" fill="#fff"/><path d="M11.173 23.884c.917.442 2.39-1.505 5.76.19.614.308.98-2.642-2.632-2.642-3.128 0-3.682 2.184-3.128 2.452z" fill="#51362A"/><path d="M31.965 31.017c1.07 0 1.939-.918 1.939-2.05 0-1.134-.869-2.052-1.94-2.052-1.07 0-1.939.918-1.939 2.051s.869 2.051 1.94 2.051z" fill="#3B2519"/><path d="M31.119 28.62c.32 0 .58-.25.58-.56a.57.57 0 0 0-.58-.56.57.57 0 0 0-.58.56c0 .31.26.56.58.56z" fill="#fff"/><path d="M34.827 23.884c-.917.442-2.39-1.505-5.76.19-.614.308-.98-2.642 2.632-2.642 3.128 0 3.682 2.184 3.128 2.452z" fill="#51362A"/><path d="M23 36.18c-1.916 0-3.07-1.382-3.07-.713 0 .668.554 1.94 3.07 1.94 2.517 0 3.07-1.272 3.07-1.94 0-.67-1.154.713-3.07.713zm0 6.148c-.663 0-1.062-.478-1.062-.246 0 .231.192.67 1.062.67.87 0 1.062-.439 1.062-.67 0-.232-.4.246-1.062.246z" fill="#FCBC85"/><path d="M23 40.625c-3.037 0-4.867-1.194-4.867-.892 0 .303.879 1.494 4.867 1.494s4.867-1.191 4.867-1.494c0-.302-1.83.892-4.867.892z" fill="#F7945E"/><path d="M23 49.653v11.235H.563C.563 56.34 12.382 49.653 23 49.653z" fill="#F7941E"/><path d="M23 49.653v11.235h22.437c0-4.548-11.818-11.235-22.437-11.235z" fill="#F7941E"/><path d="M23 49.653c-2.258 0-4.57.305-6.813.825.015.02 2.487 3.098 6.813 3.098 4.006 0 6.67-2.637 7.056-3.042-2.318-.556-4.716-.881-7.056-.881z" fill="#F36C21"/><path d="M18.383 50.042s1.35 1.617 4.617 1.617c3.266 0 4.617-1.617 4.617-1.617s-4.79-1.684-9.234 0z" fill="#FDCC9B"/><path d="M37.727 6.452S31.08-1.707 17.262 1.369C3.444 4.445 2.409 12.47 2.825 20.28c.415 7.805 1.523 12.386 2.834 11.82 1.31-.567.628-5.72.767-6.91.138-1.19 1.385-6.568 9.789-5.766 8.403.803 15.484-2.14 15.484-2.14s2.851 3.48 4.727 4.147c3.749 1.332 2.52 10.213 3.988 10.213 1.469 0 8.67-20.512-2.687-25.193z" fill="#51362A"/></svg>