<svg width="53" height="60" fill="none" xmlns="http://www.w3.org/2000/svg"><path d="M26.422 13.218v45.767S.66 61.677.66 49.012c0 0 6.92.88 5.503-4.94-1.796-7.38-.791-19.33 0-25.861.791-6.532 20.259-4.993 20.259-4.993z" fill="#330C00"/><path d="M26.338 13.218v45.767S52.1 61.677 52.1 49.012c0 0-6.92.88-5.503-4.94 1.796-7.38.792-19.33 0-25.861-.791-6.532-20.259-4.993-20.259-4.993z" fill="#330C00"/><path d="M26.871 52.178v-6.667s10.495-.321 10.495 6.085l-10.495.582zm-.899 0v-6.667s-10.495-.321-10.495 6.085l10.495.582z" fill="#00B497"/><path d="M30.59 45.51h-8.337v9.418h8.338V45.51z" fill="#FDCC9B"/><path d="M22.253 46.62s3.507 2.252 8.338 1.73v-2.84h-8.338v1.11zM10.231 35.589c2.247 0 4.068-2.096 4.068-4.68 0-2.586-1.821-4.682-4.068-4.682s-4.068 2.096-4.068 4.681 1.821 4.68 4.068 4.68zm32.381 0c2.247 0 4.068-2.096 4.068-4.68 0-2.586-1.821-4.682-4.068-4.682s-4.068 2.096-4.068 4.681 1.822 4.68 4.068 4.68z" fill="#FCBC85"/><path d="M42.596 21.968c0-6.895-5.003-11.94-16.174-11.94-11.172 0-16.174 5.045-16.174 11.94S9.08 47.024 26.422 47.024s16.174-18.161 16.174-25.056z" fill="#FDCC9B"/><path d="M18.544 31.721c.967 0 1.75-.866 1.75-1.934s-.783-1.933-1.75-1.933-1.75.865-1.75 1.933.783 1.934 1.75 1.934z" fill="#3B2519"/><path d="M17.78 29.462c.29 0 .524-.237.524-.528a.526.526 0 0 0-.524-.528.526.526 0 0 0-.523.528c0 .291.234.528.523.528z" fill="#fff"/><path d="M15.743 25.618c.828.32 2.157-1.087 5.2.137.555.223.886-1.908-2.376-1.908-2.824 0-3.324 1.577-2.824 1.77z" fill="#684B37"/><path d="M34.516 31.721c.967 0 1.751-.866 1.751-1.934s-.784-1.933-1.75-1.933c-.968 0-1.752.865-1.752 1.933s.784 1.934 1.751 1.934z" fill="#3B2519"/><path d="M33.753 29.462c.29 0 .524-.237.524-.529a.526.526 0 0 0-.524-.528.526.526 0 0 0-.524.528c0 .292.235.529.524.529z" fill="#fff"/><path d="M37.1 25.618c-.828.32-2.157-1.087-5.2.136-.554.223-.886-1.907 2.376-1.907 2.824 0 3.325 1.577 2.824 1.77z" fill="#684B37"/><path d="M26.422 36.59c-1.73 0-2.772-1.304-2.772-.673 0 .63.5 1.829 2.772 1.829s2.772-1.198 2.772-1.829c0-.63-1.042.673-2.772.673zm0 5.798c-.599 0-.96-.451-.96-.233s.174.633.96.633.959-.414.959-.633c0-.218-.361.233-.96.233z" fill="#FCBC85"/><path d="M26.422 40.78c-2.743 0-4.394-1.126-4.394-.84 0 .285.793 1.408 4.394 1.408s4.394-1.123 4.394-1.408c0-.285-1.652.84-4.394.84z" fill="#F7945E"/><path d="M16.292 38.364a2.386 2.386 0 0 0 2.376-2.397 2.386 2.386 0 0 0-2.376-2.396 2.386 2.386 0 0 0-2.376 2.396 2.386 2.386 0 0 0 2.376 2.397zm20.551 0a2.386 2.386 0 0 0 2.376-2.397 2.386 2.386 0 0 0-2.376-2.396 2.386 2.386 0 0 0-2.376 2.396 2.386 2.386 0 0 0 2.376 2.397z" fill="#F9AA8D"/><path d="M26.422 49.294v10.594H8.164c0-4.288 8.67-10.594 18.258-10.594zm0 0v10.594h18.257c0-4.288-8.67-10.594-18.257-10.594z" fill="#8FD6E7"/><path d="M26.422 59.408V49.294c-2.67 0-5.262.501-7.622 1.3l7.622 8.814z" fill="#F6B1CF"/><path d="M26.422 59.408V49.294c2.67 0 5.26.501 7.622 1.3l-7.622 8.814z" fill="#F6B1CF"/><path d="M26.422 49.294c-1.943 0-3.842.269-5.645.717.257 1.573 1.31 4.802 5.645 4.802 4.333 0 5.387-3.229 5.643-4.802a23.391 23.391 0 0 0-5.643-.717z" fill="#F283B4"/><path d="M22.253 49.66s0 3.787 4.169 3.787c4.168 0 4.168-3.787 4.168-3.787s-4.325-1.588-8.337 0z" fill="#FDCC9B"/><path d="M20.042 50.084c.125-.818-4.855-.215-4.815 2.094.041 2.31 5.503 4.086 7.004 4.927 1.5.84 4.168 2.783 4.168 2.783s.5-1.951-1.834-3.456-4.69-5.255-4.523-6.348z" fill="#3ABDAA"/><path d="M32.74 50.084c-.125-.818 4.856-.215 4.815 2.094-.04 2.31-5.502 4.086-7.003 4.927-1.5.84-4.169 2.783-4.169 2.783s-.5-1.951 1.835-3.456c2.334-1.505 4.69-5.255 4.522-6.348z" fill="#3ABDAA"/><path d="M26.422.77c-18.76 0-21.26 16.52-21.26 28.692 0 12.173 6.248 19.242 11.13 21.217 0 0-7.795-13.933-3.96-26.831 3.137-10.553 14.09-7.437 14.09-7.437s10.951-3.116 14.09 7.437c3.834 12.898-3.961 26.83-3.961 26.83 4.882-1.974 11.13-9.043 11.13-21.216 0-12.172-2.5-28.69-21.26-28.69z" fill="#401900"/><path d="M32.765 19.325s-7.04 3.56-13.258 2.845c-6.218-.715-8.606 5.786-8.226 10.088l-2.075-9.576 3.751-7.575 10.692-5.55 10.104.471 4.79 4.196 4.07 5.1 2.86 3.358-1.377 10.334-2.912 3.532s2.635-13.258-8.419-17.223z" fill="#401900"/></svg>