<svg width="412" height="69" fill="none" xmlns="http://www.w3.org/2000/svg"><path d="M411.635.114H.365V69h411.27V.114z" fill="#4D2D19"/><path d="M31.032 4.732H.366v12.761h30.666V4.732zm34.448 0H34.813v12.761H65.48V4.732zm34.867 0H69.681v12.761h30.666V4.732zm34.448 0h-30.667v12.761h30.667V4.732zm34.447 0h-30.667v12.761h30.667V4.732zm34.868 0h-30.667v12.761h30.667V4.732zm34.447 0H207.89v12.761h30.667V4.732zm34.868 0h-30.667v12.761h30.667V4.732zm34.447 0h-30.666v12.761h30.666V4.732zm34.448 0h-30.667v12.761h30.667V4.732zm34.867 0h-30.666v12.761h30.666V4.732zm34.448 0h-30.667v12.761h30.667V4.732zM48.255 20.683H17.59v12.761h30.666v-12.76zm-34.446 0H.366v12.761h13.443v-12.76zm69.314 0H52.456v12.761h30.667v-12.76zm34.447 0H86.904v12.761h30.666v-12.76zm34.449 0h-30.667v12.761h30.667v-12.76zm34.867 0h-30.667v12.761h30.667v-12.76zm34.448 0h-30.667v12.761h30.667v-12.76zm34.447 0h-30.666v12.761h30.666v-12.76zm34.868 0h-30.667v12.761h30.667v-12.76zm34.447 0H294.43v12.761h30.666v-12.76zm34.868 0h-30.667v12.761h30.667v-12.76zm34.447 0h-30.666v12.761h30.666v-12.76zm17.224 0h-13.443v12.761h13.443v-12.76zM31.032 36.215H.366v12.762h30.666V36.215zm34.448 0H34.813v12.762H65.48V36.215zm34.867 0H69.681v12.762h30.666V36.215zm34.448 0h-30.667v12.762h30.667V36.215zm34.447 0h-30.667v12.762h30.667V36.215zm34.868 0h-30.667v12.762h30.667V36.215zm34.447 0H207.89v12.762h30.667V36.215zm34.868 0h-30.667v12.762h30.667V36.215zm34.447 0h-30.666v12.762h30.666V36.215zm34.448 0h-30.667v12.762h30.667V36.215zm34.867 0h-30.666v12.762h30.666V36.215zm34.448 0h-30.667v12.762h30.667V36.215zM48.255 52.167H17.59v12.76h30.666v-12.76zm-34.446 0H.366v12.76h13.443v-12.76zm69.314 0H52.456v12.76h30.667v-12.76zm34.447 0H86.904v12.76h30.666v-12.76zm34.449 0h-30.667v12.76h30.667v-12.76zm34.867 0h-30.667v12.76h30.667v-12.76zm34.448 0h-30.667v12.76h30.667v-12.76zm34.447 0h-30.666v12.76h30.666v-12.76zm34.868 0h-30.667v12.76h30.667v-12.76zm34.447 0H294.43v12.76h30.666v-12.76zm34.868 0h-30.667v12.76h30.667v-12.76zm34.447 0h-30.666v12.76h30.666v-12.76zm17.224 0h-13.443v12.76h13.443v-12.76z" fill="#613007"/></svg>