<?xml version="1.0" encoding="utf-8"?><svg xmlns="http://www.w3.org/2000/svg" xmlns:xlink="http://www.w3.org/1999/xlink"><symbol viewBox="0 0 475.071 475.071" id="android" xmlns="http://www.w3.org/2000/svg"><path d="M65.947 153.884c-8.183 0-15.136 2.853-20.844 8.566-5.708 5.711-8.564 12.562-8.564 20.555v122.772c0 8.179 2.855 15.126 8.564 20.837 5.708 5.712 12.657 8.562 20.841 8.562 8.186 0 15.085-2.851 20.699-8.562 5.618-5.711 8.425-12.658 8.425-20.837V183.005c0-7.996-2.857-14.847-8.565-20.555-5.709-5.71-12.564-8.566-20.556-8.566zm40.547 195.573c0 8.754 3.046 16.177 9.136 22.269 6.091 6.085 13.512 9.13 22.27 9.13h21.128l.288 64.81c0 8.186 2.855 15.129 8.564 20.841 5.708 5.711 12.562 8.565 20.555 8.565 8.188 0 15.133-2.854 20.844-8.565 5.711-5.712 8.564-12.655 8.564-20.841v-64.81h39.397v64.81c0 8.186 2.854 15.129 8.562 20.841 5.715 5.711 12.662 8.565 20.848 8.565 8.179 0 15.126-2.854 20.834-8.565 5.708-5.712 8.559-12.655 8.559-20.841v-64.81h21.416c8.56 0 15.89-3.039 21.98-9.13 6.092-6.092 9.138-13.515 9.138-22.269V159.308H106.494v190.149zM302.345 43.682L322.61 6.279c1.335-2.474.855-4.377-1.424-5.708-2.478-1.143-4.38-.572-5.708 1.714l-20.56 37.685c-18.082-7.994-37.205-11.991-57.384-11.991-20.174 0-39.304 3.997-57.387 11.991L159.591 2.286C158.263 0 156.357-.571 153.883.572c-2.285 1.331-2.758 3.234-1.426 5.708l20.271 37.402c-20.559 10.467-36.923 25.076-49.108 43.824-12.181 18.749-18.273 39.259-18.273 61.525h264.095c0-22.266-6.091-42.777-18.273-61.525-12.187-18.748-28.452-33.358-48.824-43.824zM185.144 98.068c-2.187 2.19-4.803 3.284-7.849 3.284-3.046 0-5.614-1.093-7.71-3.284-2.091-2.187-3.14-4.805-3.14-7.85 0-3.046 1.049-5.664 3.14-7.854 2.093-2.19 4.665-3.282 7.71-3.282 3.042 0 5.659 1.091 7.849 3.282 2.19 2.19 3.284 4.808 3.284 7.854 0 3.046-1.094 5.66-3.284 7.85zm120.345 0c-2.098 2.19-4.668 3.284-7.713 3.284-3.046 0-5.657-1.093-7.848-3.284-2.19-2.187-3.281-4.805-3.281-7.85 0-3.046 1.091-5.664 3.281-7.854 2.19-2.19 4.802-3.282 7.848-3.282 3.045 0 5.615 1.091 7.713 3.282 2.088 2.19 3.139 4.808 3.139 7.854 0 3.046-1.048 5.66-3.139 7.85zm124.475 64.238c-5.708-5.614-12.655-8.422-20.841-8.422-7.991 0-14.843 2.808-20.551 8.422-5.711 5.616-8.568 12.517-8.568 20.699v122.772c0 8.179 2.857 15.126 8.568 20.837 5.708 5.712 12.56 8.562 20.551 8.562 8.186 0 15.133-2.851 20.841-8.562 5.715-5.711 8.568-12.658 8.568-20.837V183.005c0-8.183-2.853-15.084-8.568-20.699z"/></symbol><symbol viewBox="0 0 305 305" id="apple" xmlns="http://www.w3.org/2000/svg"><path d="M40.738 112.119c-25.785 44.745-9.393 112.648 19.121 153.82C74.092 286.523 88.502 305 108.239 305c.372 0 .745-.007 1.127-.022 9.273-.37 15.974-3.225 22.453-5.984 7.274-3.1 14.797-6.305 26.597-6.305 11.226 0 18.39 3.101 25.318 6.099 6.828 2.954 13.861 6.01 24.253 5.815 22.232-.414 35.882-20.352 47.925-37.941 12.567-18.365 18.871-36.196 20.998-43.01l.086-.271a2.5 2.5 0 0 0-1.328-3.066c-.032-.015-.15-.064-.183-.078-3.915-1.601-38.257-16.836-38.618-58.36-.335-33.736 25.763-51.601 30.997-54.839l.244-.152a2.498 2.498 0 0 0 .71-3.511c-18.014-26.362-45.624-30.335-56.74-30.813a50.043 50.043 0 0 0-4.95-.242c-13.056 0-25.563 4.931-35.611 8.893-6.936 2.735-12.927 5.097-17.059 5.097-4.643 0-10.668-2.391-17.645-5.159-9.33-3.703-19.905-7.899-31.1-7.899-.267 0-.53.003-.789.008-26.03.383-50.626 15.275-64.186 38.859z"/><path d="M212.101.002c-15.763.642-34.672 10.345-45.974 23.583-9.605 11.127-18.988 29.679-16.516 48.379a2.499 2.499 0 0 0 2.284 2.164c1.064.083 2.15.125 3.232.126 15.413 0 32.04-8.527 43.395-22.257 11.951-14.498 17.994-33.104 16.166-49.77a2.515 2.515 0 0 0-2.587-2.225z"/></symbol><symbol viewBox="0 0 459 459" id="bookmark" xmlns="http://www.w3.org/2000/svg"><path d="M357 0H102C73.95 0 51 22.95 51 51v408l178.5-76.5L408 459V51c0-28.05-22.95-51-51-51zm0 382.5l-127.5-56.1L102 382.5V51h255v331.5z"/></symbol><symbol viewBox="0 0 430.113 430.114" id="facebook" xmlns="http://www.w3.org/2000/svg"><path d="M158.081 83.3v59.218h-43.385v72.412h43.385v215.183h89.122V214.936h59.805s5.601-34.721 8.316-72.685H247.54V92.74c0-7.4 9.717-17.354 19.321-17.354h48.557V.001h-66.021C155.878-.004 158.081 72.48 158.081 83.3z"/></symbol><symbol viewBox="0 0 481.2 481.2" id="folder" xmlns="http://www.w3.org/2000/svg"><path d="M403.9 97.85h-114c-27.7 0-50.3-22.5-50.3-50.3 0-7.5-6-13.5-13.5-13.5H77.3c-42.6 0-77.3 34.7-77.3 77.3v258.5c0 42.6 34.7 77.3 77.3 77.3h326.6c42.6 0 77.3-34.7 77.3-77.3v-194.8c0-42.6-34.7-77.2-77.3-77.2zm50.3 271.9c0 27.7-22.5 50.3-50.3 50.3H77.3c-27.7 0-50.3-22.5-50.3-50.3v-258.4c0-27.7 22.5-50.3 50.3-50.3h136.5c6.4 36.2 38.1 63.8 76.1 63.8h114c27.7 0 50.3 22.5 50.3 50.3v194.6z"/></symbol><symbol viewBox="0 0 96.828 96.827" id="google" xmlns="http://www.w3.org/2000/svg"><path d="M62.617 0H39.525c-10.29 0-17.413 2.256-23.824 7.552-5.042 4.35-8.051 10.672-8.051 16.912 0 9.614 7.33 19.831 20.913 19.831 1.306 0 2.752-.134 4.028-.253l-.188.457c-.546 1.308-1.063 2.542-1.063 4.468 0 3.75 1.809 6.063 3.558 8.298l.22.283-.391.027c-5.609.384-16.049 1.1-23.675 5.787-9.007 5.355-9.707 13.145-9.707 15.404 0 8.988 8.376 18.06 27.09 18.06 21.76 0 33.146-12.005 33.146-23.863.002-8.771-5.141-13.101-10.6-17.698l-4.605-3.582c-1.423-1.179-3.195-2.646-3.195-5.364 0-2.672 1.772-4.436 3.336-5.992l.163-.165c4.973-3.917 10.609-8.358 10.609-17.964 0-9.658-6.035-14.649-8.937-17.048h7.663a.488.488 0 0 0 .266-.077l6.601-4.15A.5.5 0 0 0 62.617 0zM34.614 91.535c-13.264 0-22.176-6.195-22.176-15.416 0-6.021 3.645-10.396 10.824-12.997 5.749-1.935 13.17-2.031 13.244-2.031 1.257 0 1.889 0 2.893.126 9.281 6.605 13.743 10.073 13.743 16.678-.001 8.414-7.101 13.64-18.528 13.64zm-.125-50.779c-11.132 0-15.752-14.633-15.752-22.468 0-3.984.906-7.042 2.77-9.351 2.023-2.531 5.487-4.166 8.825-4.166 10.221 0 15.873 13.738 15.873 23.233 0 1.498 0 6.055-3.148 9.22-2.117 2.113-5.56 3.532-8.568 3.532zm60.493 4.467H82.814V33.098a.5.5 0 0 0-.5-.5H77.08a.5.5 0 0 0-.5.5v12.125H64.473a.5.5 0 0 0-.5.5v5.304a.5.5 0 0 0 .5.5H76.58V63.73a.5.5 0 0 0 .5.5h5.234c.275 0 .5-.225.5-.5V51.525h12.168a.5.5 0 0 0 .5-.5v-5.302c0-.277-.223-.5-.5-.5z"/></symbol><symbol viewBox="0 0 502.664 502.664" id="html" xmlns="http://www.w3.org/2000/svg"><path d="M153.821 358.226L0 274.337v-46.463l153.821-83.414v54.574L46.636 250.523l107.185 53.431v54.272zm26.273 29.358L282.103 115.08h32.227L212.084 387.584h-31.99zm168.749-29.358v-54.272l107.164-52.999-107.164-52.59v-53.927l153.821 83.522v46.183l-153.821 84.083z"/></symbol><symbol viewBox="0 0 438.526 438.526" id="lemon" xmlns="http://www.w3.org/2000/svg"><path d="M435.817 159.743c-1.707-14.939-4.093-26.215-7.139-33.832-.373-1.141-.995-2.76-1.852-4.856a650.161 650.161 0 0 1-1.851-4.567c-.384-.95-.764-2.238-1.144-3.857a46.132 46.132 0 0 1-.855-4.854 45.173 45.173 0 0 1-.287-5.28c0-4.38.482-10.854 1.431-19.417.947-8.562 1.42-15.034 1.42-19.414 0-15.987-3.524-28.789-10.561-38.4-7.043-9.612-18.278-14.417-33.688-14.417-3.805 0-9.328.477-16.566 1.427-7.23.95-12.658 1.425-16.269 1.425-11.044 0-27.556-2.281-49.543-6.851C276.931 2.281 260.23 0 248.813 0c-23.223 0-53.298 7.421-90.227 22.267-29.314 11.609-51.394 23.029-66.238 34.261-16.37 12.369-30.642 27.218-42.827 44.536-12.181 17.325-21.748 35.785-28.693 55.393-6.945 19.599-12.132 39.538-15.559 59.811-3.424 20.269-5.138 40.97-5.138 62.098 0 7.803 1.192 19.363 3.571 34.688 2.38 15.324 3.568 26.788 3.568 34.399 0 4.38-1.044 10.749-3.14 19.13-2.096 8.377-3.14 14.842-3.14 19.41 0 13.895 4.805 26.125 14.417 36.692 9.611 10.562 21.365 15.842 35.26 15.842 4.759 0 11.753-1.387 20.983-4.142 9.235-2.758 16.13-4.144 20.701-4.144 10.657 0 26.741 1.386 48.249 4.144 21.51 2.755 37.687 4.142 48.535 4.142 38.454 0 69.479-4.186 93.078-12.563 29.499-10.465 56.254-27.647 80.236-51.534 23.982-23.89 42.633-51.298 55.959-82.228 13.319-30.926 19.985-62.102 19.985-93.505.002-11.036-.865-24.016-2.576-38.954zm-50.952 118.054c-11.327 26.27-27.124 49.629-47.39 70.093-20.273 20.465-42.688 34.975-67.239 43.537-19.605 6.858-46.632 10.283-81.086 10.283-10.848 0-26.979-1.471-48.393-4.425-21.416-2.949-37.546-4.428-48.395-4.428-4.758 0-11.75 1.047-20.985 3.138-9.233 2.098-16.134 3.139-20.699 3.139-4.189 0-7.426-1.383-9.707-4.142-2.284-2.758-3.427-6.234-3.427-10.424 0-4.191 1.044-10.424 3.14-18.705 2.093-8.274 3.14-14.605 3.14-18.986 0-7.799-1.191-19.314-3.571-34.536-2.38-15.229-3.567-26.646-3.567-34.263 0-24.558 2.331-48.205 6.995-70.947 4.661-22.747 13.035-45.205 25.122-67.38 12.087-22.176 27.268-40.205 45.539-54.103 12.373-9.329 31.599-19.127 57.673-29.409 10.66-4.187 19.174-7.426 25.553-9.707 6.374-2.285 14.466-4.521 24.264-6.711 9.803-2.19 18.796-3.284 26.981-3.284 11.231 0 27.884 2.281 49.964 6.851s38.828 6.851 50.251 6.851c3.806 0 9.421-.428 16.844-1.283 7.43-.857 12.942-1.285 16.563-1.285 1.718 0 2.957.094 3.716.288 1.903 3.422 2.848 8.655 2.848 15.696 0 4.187-.479 10.61-1.431 19.273-.947 8.658-1.417 15.176-1.417 19.556 0 4.948.37 9.565 1.144 13.846.756 4.283 1.612 7.755 2.56 10.422.955 2.667 2.577 6.851 4.853 12.563 2.102 5.137 3.806 14.321 5.147 27.55 1.334 13.227 1.991 24.03 1.991 32.404 0 26.081-5.66 52.252-16.981 78.528z"/></symbol><symbol viewBox="0 0 511.949 511.949" id="logo" xmlns="http://www.w3.org/2000/svg"><path d="M206.206 281.068c-.623-4.676-4.958-7.97-9.6-7.305-4.668.623-7.936 4.924-7.305 9.6 9.02 66.543-14.993 133.769-64.222 179.823-3.439 3.217-3.618 8.619-.393 12.066a8.484 8.484 0 0 0 6.229 2.696 8.48 8.48 0 0 0 5.828-2.304c53.258-49.825 79.225-122.563 69.463-194.576zM82.55 291.035a9.019 9.019 0 0 0-.333-1.169 180.295 180.295 0 0 1-3.149-26.786c-.188-4.71-4.215-8.337-8.875-8.175-4.71.188-8.371 4.164-8.175 8.875a198.441 198.441 0 0 0 3.703 30.652c.077.393.188.777.324 1.152 5.564 29.773-5.274 60.322-28.467 79.966-3.593 3.055-4.045 8.439-.998 12.032a8.524 8.524 0 0 0 6.519 3.021 8.47 8.47 0 0 0 5.513-2.031c28.237-23.92 41.242-61.296 33.938-97.537zm47.966 67.96c-4.395-1.707-9.344.469-11.051 4.864-9.148 23.561-24.311 44.467-43.836 60.459-3.644 2.978-4.181 8.363-1.195 12.006a8.528 8.528 0 0 0 6.605 3.123 8.522 8.522 0 0 0 5.41-1.929c21.786-17.852 38.707-41.182 48.93-67.482 1.707-4.385-.477-9.335-4.863-11.041zM51.198 117.134a8.493 8.493 0 0 0 5.026 1.647 8.51 8.51 0 0 0 6.895-3.507c35.26-48.307 86.98-81.417 145.638-93.244 52.045-10.505 104.695-3.712 152.235 19.627 4.241 2.091 9.353.324 11.418-3.9a8.523 8.523 0 0 0-3.9-11.418C317.575 1.328 261.161-5.942 205.387 5.296 142.53 17.968 87.115 53.45 49.338 105.213c-2.782 3.806-1.946 9.148 1.86 11.921zM22.04 303.263c-.043-.205-.179-.358-.239-.563-10.624-53.316-3.191-107.008 21.538-155.315 2.15-4.19.495-9.335-3.703-11.486-4.198-2.159-9.335-.486-11.486 3.712C1.551 191.553-6.402 249.316 5.161 306.643c.068.316.247.572.341.87a269.786 269.786 0 0 0 2.236 10.018 8.536 8.536 0 0 0 8.286 6.485c.674 0 1.357-.077 2.048-.239 4.574-1.135 7.373-5.76 6.246-10.334a227.437 227.437 0 0 1-2.278-10.18z"/><path d="M217.59 65.857c-79.061 15.94-139.076 77.577-152.892 157.022-.802 4.642 2.304 9.062 6.946 9.873a8.52 8.52 0 0 0 9.873-6.946c12.595-72.465 67.337-128.674 139.452-143.224 95.676-19.26 189.184 42.854 208.461 138.513.051.273.119.529.196.785a451.3 451.3 0 0 1 3.959 22.793c.623 4.241 4.267 7.287 8.431 7.287.418 0 .836-.026 1.254-.094a8.532 8.532 0 0 0 7.202-9.677c-1.161-7.927-2.603-16.154-4.267-24.457a9.026 9.026 0 0 0-.213-.819C424.489 112.484 322.2 44.772 217.59 65.857z"/><path d="M325.05 242.139c-3.721-18.458-14.404-34.364-30.089-44.783-15.684-10.428-34.492-14.097-52.941-10.394a70.437 70.437 0 0 0-55.1 54.724c-.964 4.617 1.997 9.139 6.605 10.103 4.634.956 9.139-1.997 10.103-6.613a53.377 53.377 0 0 1 41.762-41.481c13.995-2.807 28.237-.026 40.124 7.868 11.605 7.714 19.593 19.388 22.588 32.956.034.341.077.683.145 1.024a333.354 333.354 0 0 1 6.605 64.947c.017 4.71 3.831 8.516 8.533 8.516h.017c4.719-.009 8.533-3.84 8.516-8.55-.06-22.443-2.321-45.056-6.724-67.217a9.66 9.66 0 0 0-.144-1.1z"/><path d="M264.369 254.384c-.93-4.617-5.427-7.586-10.052-6.682-4.617.93-7.612 5.436-6.682 10.052 16.794 83.294-5.786 167.714-61.943 231.629-3.106 3.541-2.756 8.934.776 12.049a8.542 8.542 0 0 0 5.632 2.116 8.512 8.512 0 0 0 6.417-2.893c59.7-67.958 83.704-157.712 65.852-246.271zm242.484-48.896c-.051-.256-.222-.452-.299-.708-13.141-64.265-49.911-120.397-103.62-158.089-3.857-2.722-9.19-1.775-11.887 2.082-2.705 3.857-1.775 9.182 2.082 11.887 50.313 35.311 84.71 87.953 96.862 148.224.043.23.179.41.239.631 3.379 16.981 4.932 34.261 4.608 51.379a8.543 8.543 0 0 0 8.371 8.695h.171c4.634 0 8.439-3.721 8.525-8.371.349-18.584-1.349-37.323-5.052-55.73z"/><path d="M385.611 229.936c-6.98-34.645-27.034-64.486-56.465-84.036-29.431-19.558-64.708-26.462-99.345-19.49-71.492 14.413-117.939 84.318-103.518 155.81.102.503.247.981.427 1.442 2.739 14.259 3.345 28.715 1.801 42.999-.503 4.685 2.884 8.892 7.578 9.404 4.582.461 8.892-2.884 9.395-7.578 1.775-16.521.99-33.229-2.33-49.673a8.488 8.488 0 0 0-.427-1.425c-11.64-61.764 28.663-121.788 90.445-134.246 30.165-6.084 60.902-.06 86.528 16.973 25.481 16.93 42.889 42.718 49.075 72.661.026.179.051.367.085.546 9.489 47.01 10.377 94.66 2.645 141.602a8.545 8.545 0 0 0 7.04 9.813c.469.068.93.111 1.391.111a8.544 8.544 0 0 0 8.414-7.151c8.03-48.811 7.142-98.33-2.645-147.2-.026-.186-.051-.374-.094-.562zm59.998 43.921c-4.702.299-8.277 4.352-7.979 9.054 3.081 48.922-1.758 97.766-14.387 145.169a8.527 8.527 0 0 0 6.05 10.436 8.558 8.558 0 0 0 2.202.299 8.55 8.55 0 0 0 8.243-6.349c13.107-49.186 18.125-99.866 14.925-150.63-.29-4.702-4.241-8.277-9.054-7.979zm-71.791 132.711a8.492 8.492 0 0 0-10.445 6.033 394.498 394.498 0 0 1-26.377 70.588 8.535 8.535 0 0 0 7.672 12.271 8.517 8.517 0 0 0 7.671-4.796 410.966 410.966 0 0 0 27.511-73.651c1.23-4.549-1.475-9.233-6.032-10.445z"/><path d="M322.191 341.211c-4.651-.529-8.917 2.825-9.446 7.509-6.093 53.359-25.429 105.139-55.936 149.726a8.522 8.522 0 0 0 2.219 11.853 8.447 8.447 0 0 0 4.813 1.493 8.513 8.513 0 0 0 7.049-3.712c32.077-46.874 52.412-101.308 58.812-157.423.528-4.684-2.835-8.917-7.511-9.446z"/></symbol><symbol viewBox="0 0 511.999 511.999" id="message" xmlns="http://www.w3.org/2000/svg"><path d="M444.253 47.065H67.747C30.392 47.065.002 77.456.002 114.81v282.379c0 37.355 30.39 67.745 67.745 67.745h376.506c37.355 0 67.745-30.391 67.745-67.745V114.81c0-37.355-30.39-67.745-67.745-67.745zm26.381 350.124c0 14.546-11.835 26.381-26.381 26.381H67.747c-14.546 0-26.381-11.835-26.381-26.381V114.81c0-14.546 11.835-26.381 26.381-26.381h376.506c14.546 0 26.381 11.835 26.381 26.381v282.379z"/><path d="M508.259 102.95c-6.549-9.357-19.443-11.633-28.804-5.083L255.999 254.284 32.544 97.866c-9.357-6.551-22.253-4.274-28.803 5.083s-4.274 22.253 5.083 28.803L244.14 296.474a20.652 20.652 0 0 0 11.86 3.738c4.149 0 8.299-1.246 11.86-3.738l235.316-164.721c9.357-6.55 11.633-19.446 5.083-28.803z"/></symbol><symbol viewBox="0 0 511.977 511.977" id="pinterest" xmlns="http://www.w3.org/2000/svg"><path d="M262.948 0C122.628 0 48.004 89.92 48.004 187.968c0 45.472 25.408 102.176 66.08 120.16 6.176 2.784 9.536 1.6 10.912-4.128 1.216-4.352 6.56-25.312 9.152-35.2.8-3.168.384-5.92-2.176-8.896-13.504-15.616-24.224-44.064-24.224-70.752 0-68.384 54.368-134.784 146.88-134.784 80 0 135.968 51.968 135.968 126.304 0 84-44.448 142.112-102.208 142.112-31.968 0-55.776-25.088-48.224-56.128 9.12-36.96 27.008-76.704 27.008-103.36 0-23.904-13.504-43.68-41.088-43.68-32.544 0-58.944 32.224-58.944 75.488 0 27.488 9.728 46.048 9.728 46.048S144.676 371.2 138.692 395.488c-10.112 41.12 1.376 107.712 2.368 113.44.608 3.168 4.16 4.16 6.144 1.568 3.168-4.16 42.08-59.68 52.992-99.808 3.968-14.624 20.256-73.92 20.256-73.92 10.72 19.36 41.664 35.584 74.624 35.584 98.048 0 168.896-86.176 168.896-193.12C463.62 76.704 375.876 0 262.948 0z"/></symbol><symbol viewBox="0 0 401.991 401.991" id="tablet" xmlns="http://www.w3.org/2000/svg"><path d="M352.029 13.418C343.077 4.471 332.332 0 319.766 0H82.223C69.66 0 58.906 4.471 49.959 13.418c-8.945 8.949-13.418 19.7-13.418 32.264v310.633c0 12.566 4.473 23.309 13.418 32.261 8.947 8.949 19.701 13.415 32.264 13.415h237.542c12.566 0 23.312-4.466 32.264-13.415 8.946-8.952 13.422-19.701 13.422-32.261V45.683c0-12.565-4.486-23.319-13.422-32.265zM213.843 378.299c-3.613 3.614-7.898 5.421-12.849 5.421-4.952 0-9.233-1.807-12.85-5.421-3.617-3.62-5.424-7.904-5.424-12.847 0-4.948 1.807-9.239 5.424-12.847 3.621-3.62 7.902-5.434 12.85-5.434 4.95 0 9.235 1.813 12.849 5.434 3.614 3.607 5.428 7.898 5.428 12.847 0 4.943-1.814 9.224-5.428 12.847zm115.059-58.532c0 2.478-.91 4.613-2.71 6.427-1.813 1.814-3.949 2.711-6.427 2.711H82.223c-2.474 0-4.615-.904-6.423-2.711s-2.712-3.949-2.712-6.427V45.683c0-2.475.903-4.617 2.712-6.424 1.809-1.809 3.949-2.712 6.423-2.712h237.542c2.478 0 4.613.9 6.427 2.712 1.807 1.807 2.71 3.949 2.71 6.424v274.084z"/></symbol><symbol viewBox="0 0 512 512" id="twitter" xmlns="http://www.w3.org/2000/svg"><path d="M512 97.248c-19.04 8.352-39.328 13.888-60.48 16.576 21.76-12.992 38.368-33.408 46.176-58.016-20.288 12.096-42.688 20.64-66.56 25.408C411.872 60.704 384.416 48 354.464 48c-58.112 0-104.896 47.168-104.896 104.992 0 8.32.704 16.32 2.432 23.936-87.264-4.256-164.48-46.08-216.352-109.792-9.056 15.712-14.368 33.696-14.368 53.056 0 36.352 18.72 68.576 46.624 87.232-16.864-.32-33.408-5.216-47.424-12.928v1.152c0 51.008 36.384 93.376 84.096 103.136-8.544 2.336-17.856 3.456-27.52 3.456-6.72 0-13.504-.384-19.872-1.792 13.6 41.568 52.192 72.128 98.08 73.12-35.712 27.936-81.056 44.768-130.144 44.768-8.608 0-16.864-.384-25.12-1.44C46.496 446.88 101.6 464 161.024 464c193.152 0 298.752-160 298.752-298.688 0-4.64-.16-9.12-.384-13.568 20.832-14.784 38.336-33.248 52.608-54.496z"/></symbol><symbol viewBox="0 0 480 480" id="windows" xmlns="http://www.w3.org/2000/svg"><path d="M.176 224L.001 67.963l192-26.072V224H.176zM224.001 37.241L479.937 0v224H224.001V37.241zM479.999 256l-.062 224-255.936-36.008V256h255.998zM192.001 439.918L.157 413.621.147 256h191.854v183.918z"/></symbol></svg>