<?xml version="1.0" encoding="UTF-8" standalone="no"?>
<!-- Created with Inkscape (http://www.inkscape.org/) -->

<svg
   xmlns:dc="http://purl.org/dc/elements/1.1/"
   xmlns:cc="http://creativecommons.org/ns#"
   xmlns:rdf="http://www.w3.org/1999/02/22-rdf-syntax-ns#"
   xmlns:svg="http://www.w3.org/2000/svg"
   xmlns="http://www.w3.org/2000/svg"
   xmlns:sodipodi="http://sodipodi.sourceforge.net/DTD/sodipodi-0.dtd"
   xmlns:inkscape="http://www.inkscape.org/namespaces/inkscape"
   version="1.1"
   id="svg328"
   width="71.425148"
   height="72.308037"
   viewBox="0 0 71.425148 72.308037"
   sodipodi:docname="folder.svg"
   inkscape:version="0.92.0 r15299">
  <metadata
     id="metadata334">
    <rdf:RDF>
      <cc:Work
         rdf:about="">
        <dc:format>image/svg+xml</dc:format>
        <dc:type
           rdf:resource="http://purl.org/dc/dcmitype/StillImage" />
        <dc:title></dc:title>
      </cc:Work>
    </rdf:RDF>
  </metadata>
  <defs
     id="defs332" />
  <sodipodi:namedview
     pagecolor="#ffffff"
     bordercolor="#666666"
     borderopacity="1"
     objecttolerance="10"
     gridtolerance="10"
     guidetolerance="10"
     inkscape:pageopacity="0"
     inkscape:pageshadow="2"
     inkscape:window-width="1920"
     inkscape:window-height="1017"
     id="namedview330"
     showgrid="false"
     fit-margin-top="0"
     fit-margin-left="0"
     fit-margin-right="0"
     fit-margin-bottom="0"
     inkscape:zoom="3.2328767"
     inkscape:cx="34.762712"
     inkscape:cy="36.190675"
     inkscape:window-x="-8"
     inkscape:window-y="-8"
     inkscape:window-maximized="1"
     inkscape:current-layer="svg328" />
  <g
     id="g358"
     style="fill:#2c3949;fill-opacity:1"
     transform="matrix(0.99141294,0,0,0.99151691,-1.5333293,-0.07269853)">
    <path
       style="fill:#2c3949;fill-opacity:1"
       d="M 1.5466101,37.5 V 2 h 9.9999999 10 V 37.5 73 h -10 -9.9999999 z M 13.54661,63 c 0,-1.333333 -0.666667,-2 -2,-2 -1.333333,0 -1.9999999,0.666667 -1.9999999,2 0,1.333333 0.6666669,2 1.9999999,2 1.333333,0 2,-0.666667 2,-2 z m 4.55,-20.946778 c 0.53998,-0.538148 0.819349,-7.012153 0.647288,-15 L 18.441186,13 H 11.493898 4.5466101 v 14.426676 c 0,16.184577 -0.4921636,15.239542 8.0499999,15.457323 2.5025,0.0638 4.9775,-0.310049 5.5,-0.830777 z M 6.5466101,32.5 c 0,-1.133333 1.2222222,-1.5 4.9999999,-1.5 3.777778,0 5,0.366667 5,1.5 0,1.133333 -1.222222,1.5 -5,1.5 -3.7777777,0 -4.9999999,-0.366667 -4.9999999,-1.5 z m 0,-5 c 0,-1.133333 1.2222222,-1.5 4.9999999,-1.5 3.777778,0 5,0.366667 5,1.5 0,1.133333 -1.222222,1.5 -5,1.5 -3.7777777,0 -4.9999999,-0.366667 -4.9999999,-1.5 z m 0,-5 c 0,-1.133333 1.2222222,-1.5 4.9999999,-1.5 3.777778,0 5,0.366667 5,1.5 0,1.133333 -1.222222,1.5 -5,1.5 C 7.7688323,24 6.5466101,23.633333 6.5466101,22.5 Z M 22.54661,37.5 V 2 h 9.864076 9.864076 l 0.635924,4.6395713 C 43.260444,9.1913355 43.54661,25.166335 43.54661,42.139571 V 73 h -10.5 -10.5 z M 34.87072,63.597766 C 35.545034,61.840532 34.739119,61 32.379943,61 c -1.791584,0 -2.493766,2.006233 -1.166666,3.333333 1.13198,1.131981 3.092068,0.737777 3.657443,-0.735567 z m 4.583248,-21.986139 c 0.776045,-0.935077 1.060893,-5.750869 0.872445,-14.75 L 40.04661,13.5 l -7.25,-0.29381 -7.25,-0.293809 v 14.470485 c 0,16.247864 -0.504987,15.284736 8.127555,15.501133 2.852786,0.07151 5.069468,-0.416471 5.779803,-1.272372 z M 27.54661,32.5 c 0,-1.299512 0.952957,-1.547062 5.013123,-1.30226 6.681976,0.402881 6.847597,2.223919 0.236877,2.60452 -4.277581,0.246274 -5.25,0.0051 -5.25,-1.30226 z m 0,-5 c 0,-1.299512 0.952957,-1.547062 5.013123,-1.30226 6.681976,0.402881 6.847597,2.223919 0.236877,2.60452 -4.277581,0.246274 -5.25,0.0051 -5.25,-1.30226 z m 0,-5 c 0,-1.299512 0.952957,-1.547062 5.013123,-1.30226 6.681976,0.402881 6.847597,2.223919 0.236877,2.60452 -4.277581,0.246274 -5.25,0.0051 -5.25,-1.30226 z M 53.115062,70.847485 C 52.498982,68.058677 44.794484,11.049418 44.352619,6.0099895 L 44.04661,2.519979 l 8,-1.1848719 c 4.4,-0.65167947 8.91959,-1.21867474 10.043533,-1.25998945 1.932719,-0.07104426 2.301386,1.80443535 6.798611,34.58582235 3.485572,25.407195 4.447734,34.850888 3.603887,35.372414 -0.633154,0.391312 -4.142529,1.015805 -7.798611,1.387763 -3.656081,0.371958 -7.640336,0.92324 -8.853901,1.22507 -1.724171,0.428827 -2.319837,0.03565 -2.725067,-1.798702 z M 64.105917,60.095961 c -0.858643,-1.389314 -3.241177,-1.419724 -4.08638,-0.05216 -0.354809,0.574093 -0.08252,1.721677 0.60508,2.550188 1.093789,1.317935 1.432112,1.324459 2.704415,0.05216 0.799825,-0.799825 1.149423,-1.94741 0.776885,-2.550189 z M 65.24064,39.640838 c 0.924076,-0.88291 0.774929,-4.153749 -0.659689,-14.467193 -1.019545,-7.329496 -2.091747,-13.564385 -2.382671,-13.855309 -1.098128,-1.098127 -12.801568,0.908716 -13.329987,2.285755 -0.485594,1.265437 2.235202,24.091642 3.244318,27.218315 0.517867,1.604574 11.220136,0.641332 13.128029,-1.181568 z m -12.69403,-7.57345 c 0,-1.106125 2.233514,-1.835584 6.915892,-2.258709 4.369271,-0.394832 5.194083,1.719326 0.99817,2.558508 -4.539751,0.907951 -7.914062,0.780125 -7.914062,-0.299799 z M 52.743205,26.9044 c 0.530555,-1.598279 8.614385,-3.019258 9.453389,-1.661721 0.834921,1.35093 0.112353,1.691092 -5.113814,2.407418 -3.878654,0.531628 -4.715833,0.387771 -4.339575,-0.745697 z M 51.54661,21.968615 c 0,-1.196444 1.092386,-1.602023 6.25,-2.320491 2.715651,-0.378296 3.75,-0.155495 3.75,0.807758 0,0.731577 -0.711804,1.603285 -1.581787,1.937129 -2.572334,0.987097 -8.418213,0.692383 -8.418213,-0.424396 z"
       id="path372"
       inkscape:connector-curvature="0" />
    <path
       style="fill:#2c3949;fill-opacity:1"
       d="M 1.5466101,37.5 V 2 h 9.9999999 10 V 37.5 73 h -10 -9.9999999 z M 13.88018,63.573113 C 14.715526,61.396238 11.914393,59.449878 10.106051,60.950668 8.2859124,62.461249 9.1890789,65 11.54661,65 c 0.982312,0 2.032419,-0.642099 2.33357,-1.426887 z M 18.34661,41.8 c 1.666064,-1.666064 1.666064,-26.933936 0,-28.6 C 16.973375,11.826765 7.7257593,11.600292 5.690275,12.890048 4.6425056,13.553953 4.3695221,16.889369 4.4903454,27.551243 4.5763685,35.142217 4.875777,41.723586 5.1556976,42.176507 5.94858,43.459418 17.002709,43.143901 18.34661,41.8 Z M 6.5466101,33 c 0,-0.55 2.25,-1 4.9999999,-1 2.75,0 5,0.45 5,1 0,0.55 -2.25,1 -5,1 C 8.7966101,34 6.5466101,33.55 6.5466101,33 Z M 6.791446,27.75 c 0.2299873,-0.69862 2.4722641,-1.384445 5.083333,-1.554791 3.689933,-0.240732 4.671831,0.02199 4.671831,1.25 C 16.54661,28.64769 15.394745,29 11.463277,29 7.8438087,29 6.4984453,28.640033 6.791446,27.75 Z M 6.5466101,22.5 c 0,-1.133333 1.2222222,-1.5 4.9999999,-1.5 3.777778,0 5,0.366667 5,1.5 0,1.133333 -1.222222,1.5 -5,1.5 C 7.7688323,24 6.5466101,23.633333 6.5466101,22.5 Z M 22.783817,37.75 23.04661,2.5 l 9.75,-0.286212 9.75,-0.286212 V 37.463788 73 H 32.533817 22.521025 Z m 12.3221,26.154039 c 0.881601,-1.426461 -2.036885,-4.344947 -3.463346,-3.463346 -0.602778,0.372537 -1.095961,1.550783 -1.095961,2.618324 0,2.124016 3.381506,2.750744 4.559307,0.845022 z M 39.34661,41.8 c 1.666064,-1.666064 1.666064,-26.933936 0,-28.6 -1.24961,-1.24961 -9.467715,-1.648476 -12.218213,-0.593011 -1.339814,0.514135 -1.581787,2.783258 -1.581787,14.833333 0,7.82449 0.3,14.526345 0.666667,14.893011 1.15686,1.156861 11.878537,0.721463 13.133333,-0.533333 z m -11.8,-8.8 c 0,-0.55 2.25,-1 5,-1 2.75,0 5,0.45 5,1 0,0.55 -2.25,1 -5,1 -2.75,0 -5,-0.45 -5,-1 z m 0.693853,-4.63948 C 26.857653,26.97771 28.872769,26 33.105627,26 c 3.280874,0 4.440983,0.391842 4.440983,1.5 0,1.102564 -1.148148,1.5 -4.333333,1.5 -2.383334,0 -4.6211,-0.287766 -4.972814,-0.63948 z M 27.791446,22.75 c 0.229987,-0.69862 2.472264,-1.384445 5.083333,-1.554791 3.689933,-0.240732 4.671831,0.02199 4.671831,1.25 C 37.54661,23.64769 36.394745,24 32.463277,24 28.843809,24 27.498445,23.640033 27.791446,22.75 Z M 53.235471,70.082865 C 51.376202,60.367338 44.271156,3.9421204 44.835933,3.377344 45.753839,2.4594374 62.820193,-0.05975082 63.501968,0.62202453 64.093251,1.213308 73.595589,69.284354 73.149164,69.730779 72.99132,69.888624 68.55738,70.61356 63.295965,71.341749 L 53.729756,72.66573 Z M 64.359033,61.735492 C 64.75702,59.668912 61.870219,58.276391 60.34661,59.8 c -1.523609,1.523609 -0.131088,4.41041 1.935492,4.012423 0.957848,-0.184464 1.892467,-1.119083 2.076931,-2.076931 z m 1.530933,-21.697396 c 0.463846,-0.453645 -0.01263,-7.060298 -1.05883,-14.681452 L 62.92895,11.5 56.777729,11.5944 c -9.234345,0.141716 -9.226711,0.125345 -7.059809,15.141374 1.013074,7.020324 2.07181,13.383964 2.352746,14.141421 0.398206,1.07364 1.88455,1.223842 6.743368,0.681452 3.427917,-0.382659 6.612086,-1.066907 7.075932,-1.520551 z M 53.15285,32.1719 c -0.70255,-1.13675 8.041277,-2.857716 9.106622,-1.792371 0.988157,0.988157 -0.0051,1.483665 -4.37481,2.182405 -2.47137,0.395188 -4.341804,0.241012 -4.731812,-0.390034 z m -0.60624,-4.924426 c 0,-0.557816 1.0125,-1.285551 2.25,-1.617188 3.501606,-0.938394 7.75,-0.735724 7.75,0.369714 0,0.55 -0.5625,1.004953 -1.25,1.011006 -0.6875,0.0061 -2.9375,0.289932 -5,0.630842 -2.275797,0.376166 -3.75,0.221129 -3.75,-0.394374 z m -1,-5.130843 c 0,-1.069674 3.498077,-2.084347 7.25,-2.102976 3.739262,-0.01857 3.483878,1.589569 -0.375,2.361345 -4.365812,0.873162 -6.875,0.778865 -6.875,-0.258369 z"
       id="path370"
       inkscape:connector-curvature="0" />
    <path
       style="fill:#2c3949;fill-opacity:1"
       d="M 1.5466101,38 V 3 h 9.9999999 10 v 35 35 h -10 -9.9999999 z M 14.105917,63.904039 c 0.372538,-0.602779 -0.0509,-1.824208 -0.940983,-2.714286 -1.491099,-1.491099 -1.745549,-1.491099 -3.2366483,0 C 8.0381856,63.079853 8.8537287,65 11.54661,65 c 1.035081,0 2.18677,-0.493183 2.559307,-1.095961 z M 18.34661,41.8 c 1.666064,-1.666064 1.666064,-26.933936 0,-28.6 C 16.78857,11.64196 6.3046501,11.64196 4.7466101,13.2 3.2667936,14.679817 3.0854326,36.656812 4.5218593,40.4349 5.4146656,42.783159 5.9895042,43 11.321859,43 14.525472,43 17.68661,42.46 18.34661,41.8 Z M 6.5466101,33 c 0,-0.55 2.25,-1 4.9999999,-1 2.75,0 5,0.45 5,1 0,0.55 -2.25,1 -5,1 -2.7499999,0 -4.9999999,-0.45 -4.9999999,-1 z m 0.5,-5 c -0.3809141,-0.616332 1.322949,-1 4.4409829,-1 2.782459,0 5.059017,0.45 5.059017,1 0,0.55 -1.998442,1 -4.440983,1 C 9.6630864,29 7.3865288,28.55 7.0466101,28 Z M 6.791446,22.75 c 0.2299873,-0.69862 2.4722641,-1.384445 5.083333,-1.554791 3.689933,-0.240732 4.671831,0.02199 4.671831,1.25 C 16.54661,23.64769 15.394745,24 11.463277,24 7.8438087,24 6.4984453,23.640033 6.791446,22.75 Z m 16.421831,49.583333 c -0.366667,-0.366666 -0.666667,-16.116666 -0.666667,-35 V 3 h 10 10 v 35 35 h -9.333333 c -5.133334,0 -9.633334,-0.3 -10,-0.666667 z m 11.89264,-8.429294 c 0.881601,-1.426461 -2.036885,-4.344947 -3.463346,-3.463346 -0.602778,0.372537 -1.095961,1.550783 -1.095961,2.618324 0,2.124016 3.381506,2.750744 4.559307,0.845022 z m 5.219646,-35.26669 C 40.51881,19.033864 40.239643,14.335053 39.416934,13.343749 38.568546,12.321505 36.489544,11.996658 32.137981,12.2064 L 26.04661,12.5 25.767076,26.451845 c -0.153743,7.673515 -0.04742,14.556716 0.236269,15.296003 0.37796,0.984949 2.323319,1.265055 7.279533,1.048155 L 40.04661,42.5 Z M 28.04661,33 c -0.380914,-0.616332 1.322949,-1 4.440983,-1 2.782459,0 5.059017,0.45 5.059017,1 0,0.55 -1.998442,1 -4.440983,1 -2.442541,0 -4.719098,-0.45 -5.059017,-1 z m 0,-5 c -0.380914,-0.616332 1.322949,-1 4.440983,-1 2.782459,0 5.059017,0.45 5.059017,1 0,0.55 -1.998442,1 -4.440983,1 -2.442541,0 -4.719098,-0.45 -5.059017,-1 z m 0.193853,-4.63948 C 26.857653,21.97771 28.872769,21 33.105627,21 c 3.280874,0 4.440983,0.391842 4.440983,1.5 0,1.102564 -1.148148,1.5 -4.333333,1.5 -2.383334,0 -4.6211,-0.287766 -4.972814,-0.63948 z M 53.27205,69.25 C 51.455476,59.726628 44.352439,3.8608378 44.889839,3.3234374 45.623925,2.5893512 62.823272,0.07374388 63.439499,0.61033097 63.655587,0.79849303 65.77495,15.025644 68.149193,32.226222 c 2.374243,17.200578 4.569797,32.68011 4.879008,34.39896 l 0.562203,3.125182 -7.562745,1.124818 C 54.722981,72.556543 53.88234,72.449438 53.27205,69.25 Z M 64.359033,61.735492 C 64.75702,59.668912 61.870219,58.276391 60.34661,59.8 c -1.523609,1.523609 -0.131088,4.41041 1.935492,4.012423 0.957848,-0.184464 1.892467,-1.119083 2.076931,-2.076931 z m 1.587088,-21.753551 c 1.013552,-0.992652 -2.177626,-26.830148 -3.528454,-28.568265 -1.10493,-1.4217184 -12.974868,0.13626 -14.028652,1.841319 -0.417553,0.675614 -0.566138,2.132128 -0.330188,3.236697 0.235949,1.10457 1.122965,6.898066 1.971146,12.874438 0.848181,5.976371 1.819805,11.315389 2.159164,11.864484 0.720266,1.165414 12.371916,0.107835 13.756984,-1.248673 z M 53.54661,32.175796 c 0,-1.122774 7.800923,-2.708207 8.734051,-1.775078 0.931405,0.931405 0.100484,1.315533 -4.484051,2.072939 -2.634759,0.435286 -4.25,0.322082 -4.25,-0.297861 z m -1,-5.05325 c 0,-1.129914 8.754865,-2.701014 9.712862,-1.743017 0.969538,0.969538 0.139262,1.313102 -4.962862,2.053613 -2.959603,0.42955 -4.75,0.312478 -4.75,-0.310596 z m -1,-4.875072 c 0,-0.557816 1.0125,-1.285551 2.25,-1.617188 3.501606,-0.938394 7.75,-0.735724 7.75,0.369714 0,0.55 -0.5625,1.004953 -1.25,1.011006 -0.6875,0.0061 -2.9375,0.289932 -5,0.630842 -2.275797,0.376166 -3.75,0.221129 -3.75,-0.394374 z"
       id="path368"
       inkscape:connector-curvature="0" />
    <path
       style="fill:#2c3949;fill-opacity:1"
       d="M 1.5466101,38 V 3 h 9.9999999 10 v 35 35 h -10 -9.9999999 z M 13.588263,64.449812 c 1.06278,-1.280572 0.997114,-1.839617 -0.377556,-3.214286 -1.552129,-1.55213 -1.776064,-1.55213 -3.3281943,0 C 8.5078432,62.610195 8.442177,63.16924 9.5049575,64.449812 10.212556,65.302415 11.131299,66 11.54661,66 c 0.415311,0 1.334055,-0.697585 2.041653,-1.550188 z m 4.37656,-22.056801 c 1.335819,-0.512602 1.581787,-2.736255 1.581787,-14.3 0,-9.316786 -0.383515,-14.076526 -1.2,-14.893011 -1.55804,-1.55804 -12.0419599,-1.55804 -13.5999999,0 -1.6660637,1.666064 -1.6660637,26.933936 0,28.6 1.2446312,1.244631 10.4445419,1.657369 13.2182129,0.593011 z M 7.0466101,33 c -0.3809141,-0.616332 1.322949,-1 4.4409829,-1 2.782459,0 5.059017,0.45 5.059017,1 0,0.55 -1.998442,1 -4.440983,1 -2.4425406,0 -4.7190982,-0.45 -5.0590169,-1 z m 1.75,-5.716254 c 1.5124999,-0.229125 3.9874999,-0.229125 5.4999999,0 1.5125,0.229124 0.275,0.41659 -2.75,0.41659 -3.0249999,0 -4.2624999,-0.187466 -2.7499999,-0.41659 z M 7.0466101,23 c -0.3809141,-0.616332 1.322949,-1 4.4409829,-1 2.782459,0 5.059017,0.45 5.059017,1 0,0.55 -1.998442,1 -4.440983,1 C 9.6630864,24 7.3865288,23.55 7.0466101,23 Z M 23.321711,37.999564 23.04661,2.9991288 l 9.75,4.356e-4 L 42.54661,3 v 35 35 h -9.474899 -9.4749 z m 10.939185,23.28615 c -1.558442,-1.558441 -1.857143,-1.571428 -3.285715,-0.142857 -1.428571,1.428572 -1.415584,1.727273 0.142858,3.285714 1.558441,1.558442 1.857142,1.571429 3.285714,0.142858 1.428571,-1.428572 1.415584,-1.727273 -0.142857,-3.285715 z M 40.04661,27.5 v -15 L 33.7093,12.200016 c -9.486053,-0.449033 -9.519457,-0.388263 -8.664607,15.763054 0.394062,7.445311 0.931919,13.894108 1.195239,14.330659 0.26332,0.43655 3.477544,0.66155 7.142721,0.5 L 40.04661,42.5 Z m -12,5.5 c -0.380914,-0.616332 1.322949,-1 4.440983,-1 2.782459,0 5.059017,0.45 5.059017,1 0,0.55 -1.998442,1 -4.440983,1 -2.442541,0 -4.719098,-0.45 -5.059017,-1 z m 1.75,-5.716254 c 1.5125,-0.229125 3.9875,-0.229125 5.5,0 1.5125,0.229124 0.275,0.41659 -2.75,0.41659 -3.025,0 -4.2625,-0.187466 -2.75,-0.41659 z M 28.04661,23 c -0.380914,-0.616332 1.322949,-1 4.440983,-1 2.782459,0 5.059017,0.45 5.059017,1 0,0.55 -1.998442,1 -4.440983,1 -2.442541,0 -4.719098,-0.45 -5.059017,-1 z M 52.720694,64.75 C 48.531553,36.340118 44.336434,3.8768425 44.795003,3.4182741 45.431832,2.7814452 62.88024,0.07021502 63.382047,0.53011639 63.566538,0.69920013 65.689201,15.161595 68.099076,32.668771 c 2.409876,17.507176 4.597218,33.003923 4.86076,34.437216 0.471669,2.5652 0.35089,2.623911 -7.717029,3.751276 C 53.043113,72.561978 53.936874,72.997882 52.720694,64.75 Z M 64.359033,61.735492 C 64.75702,59.668912 61.870219,58.276391 60.34661,59.8 c -1.523609,1.523609 -0.131088,4.41041 1.935492,4.012423 0.957848,-0.184464 1.892467,-1.119083 2.076931,-2.076931 z M 65.898191,40.048419 C 67.121976,38.824634 63.72028,12.378176 62.179933,11.14085 c -1.27002,-1.020178 -12.410539,0.236366 -13.721869,1.547696 -0.847382,0.847382 2.479597,26.517136 3.690807,28.476916 0.793212,1.283444 12.282242,0.350035 13.74932,-1.117043 z M 53.54661,32.099715 c 0,-1.069512 7.838706,-2.594342 8.734051,-1.698997 0.918409,0.918409 0.129729,1.265244 -4.484051,1.971941 -2.403076,0.368081 -4.25,0.249468 -4.25,-0.272944 z m -1,-4.962897 C 52.54661,26.213933 57.276069,25 60.87161,25 c 3.432762,0 0.54686,1.688311 -4.075,2.383958 -2.3375,0.351822 -4.25,0.240609 -4.25,-0.24714 z m -1,-4.962001 c 0,-1.166384 8.728436,-2.779714 9.712862,-1.795288 0.995515,0.995515 0.08207,1.389481 -4.962862,2.140472 -3.105277,0.462252 -4.75,0.34273 -4.75,-0.345184 z"
       id="path366"
       inkscape:connector-curvature="0" />
    <path
       style="fill:#2c3949;fill-opacity:1"
       d="M 1.5466101,38 V 3 h 9.9999999 10 v 35 35 h -10 -9.9999999 z M 13.588263,64.449812 c 1.06278,-1.280572 0.997114,-1.839617 -0.377556,-3.214286 -1.552129,-1.55213 -1.776064,-1.55213 -3.3281943,0 C 8.5078432,62.610195 8.442177,63.16924 9.5049575,64.449812 10.212556,65.302415 11.131299,66 11.54661,66 c 0.415311,0 1.334055,-0.697585 2.041653,-1.550188 z m 5.7373,-35.812463 c 0.188539,-9.369516 -0.09424,-14.312315 -0.872445,-15.25 C 17.00851,11.646702 6.4443061,11.502304 4.7466101,13.2 3.4742062,14.472404 2.9860261,38.375567 4.1694587,41.459542 4.6789735,42.787317 6.0891665,43.029649 11.919459,42.79133 L 19.04661,42.5 Z M 7.0466101,33 c -0.3809141,-0.616332 1.322949,-1 4.4409829,-1 2.782459,0 5.059017,0.45 5.059017,1 0,0.55 -1.998442,1 -4.440983,1 -2.4425406,0 -4.7190982,-0.45 -5.0590169,-1 z m 1.75,-5.716254 c 1.5124999,-0.229125 3.9874999,-0.229125 5.4999999,0 1.5125,0.229124 0.275,0.41659 -2.75,0.41659 -3.0249999,0 -4.2624999,-0.187466 -2.7499999,-0.41659 z M 7.0466101,23 c -0.3809141,-0.616332 1.322949,-1 4.4409829,-1 2.782459,0 5.059017,0.45 5.059017,1 0,0.55 -1.998442,1 -4.440983,1 C 9.6630864,24 7.3865288,23.55 7.0466101,23 Z M 23.54661,38 V 3 h 9.5 9.5 v 35 35 h -9.5 -9.5 z M 34.536041,64.512735 C 36.003569,62.744472 35.191308,60 33.20044,60 c -0.774918,0 -1.969141,0.675 -2.65383,1.5 -0.993186,1.196716 -0.993186,1.803284 0,3 1.565141,1.885879 2.432561,1.888648 3.989431,0.01274 z M 40.04661,27.5 v -15 L 33.7093,12.200016 c -3.811404,-0.180417 -6.900376,0.16732 -7.75,0.872445 -1.696228,1.407744 -2.029779,23.174272 -0.420006,27.408296 0.952219,2.504527 1.26813,2.598896 7.75,2.3151 L 40.04661,42.5 Z m -12,5.5 c -0.380914,-0.616332 1.322949,-1 4.440983,-1 2.782459,0 5.059017,0.45 5.059017,1 0,0.55 -1.998442,1 -4.440983,1 -2.442541,0 -4.719098,-0.45 -5.059017,-1 z m 1.75,-5.716254 c 1.5125,-0.229125 3.9875,-0.229125 5.5,0 1.5125,0.229124 0.275,0.41659 -2.75,0.41659 -3.025,0 -4.2625,-0.187466 -2.75,-0.41659 z M 28.04661,23 c -0.380914,-0.616332 1.322949,-1 4.440983,-1 2.782459,0 5.059017,0.45 5.059017,1 0,0.55 -1.998442,1 -4.440983,1 -2.442541,0 -4.719098,-0.45 -5.059017,-1 z M 53.547267,71.25 C 53.547628,70.8375 51.47891,55.506218 48.950116,37.180484 46.421322,18.85475 44.535933,3.6773441 44.760362,3.4529145 44.984792,3.228485 49.268098,2.4379602 54.27882,1.6961929 L 63.389224,0.34752504 63.93643,3.4237625 C 64.237394,5.1156931 66.293936,19.775 68.506524,36 c 2.212589,16.225 4.245749,30.454398 4.518133,31.620885 0.461889,1.978038 -0.09775,2.196933 -8.309126,3.25 C 54.308134,72.20558 53.546407,72.231437 53.547267,71.25 Z M 64.366161,61.239784 C 64.626037,59.418274 64.205855,59 62.116161,59 c -1.825019,0 -2.569551,0.531212 -2.569551,1.833333 0,3.876016 4.273133,4.236386 4.819551,0.406451 z m 1.452103,-21.111438 c 1.388444,-1.388444 -1.806733,-27.054524 -3.593193,-28.863252 -0.915547,-0.92696 -2.692385,-0.995222 -7.125343,-0.273739 -3.248102,0.528642 -6.284692,1.340219 -6.747977,1.803504 -0.463285,0.463285 0.06603,7.023649 1.176261,14.578587 1.110229,7.554939 2.018598,13.998179 2.018598,14.318313 0,1.012692 13.134377,-0.426136 14.271654,-1.563413 z M 53.54661,32.139626 c 0,-0.990925 7.967518,-2.505441 8.800168,-1.672791 0.848745,0.848745 -0.01743,1.211541 -4.550168,1.905824 -2.3375,0.358037 -4.25,0.253172 -4.25,-0.233033 z m -1,-4.996966 c 0,-0.484536 1.6875,-1.159902 3.75,-1.500812 5.259666,-0.869369 6.828778,-0.805974 5.7,0.230292 -1.350938,1.240219 -9.45,2.32911 -9.45,1.27052 z m -1,-4.967843 c 0,-1.061038 8.858612,-2.649539 9.758317,-1.749834 0.921321,0.921321 0.03704,1.275888 -5.008317,2.008159 -2.810298,0.40788 -4.75,0.302391 -4.75,-0.258325 z"
       id="path364"
       inkscape:connector-curvature="0" />
    <path
       style="fill:#2c3949;fill-opacity:1"
       d="m 2.2132768,72.333333 c -0.3666667,-0.366666 -0.6666667,-16.116666 -0.6666667,-35 V 3 h 9.9999999 10 V 38 73 H 12.213277 C 7.0799434,73 2.5799434,72.7 2.2132768,72.333333 Z M 13.536041,64.512735 C 15.197635,62.510636 14.090826,60 11.54661,60 10.412087,60 9.2226196,60.680731 8.9033496,61.512735 8.3287275,63.010176 10.089908,66 11.54661,66 c 0.415311,0 1.310555,-0.669269 1.989431,-1.487265 z M 19.04661,27.5 v -15 L 13.600056,12.190924 C 3.1092248,11.5956 3.5466101,10.935985 3.5466101,27.352385 c 0,7.872855 0.3178404,14.632122 0.706312,15.020594 0.3884716,0.388471 3.8759716,0.575971 7.7499999,0.416666 L 19.04661,42.5 Z M 8.7966101,32.283746 c 1.5124999,-0.229125 3.9874999,-0.229125 5.4999999,0 1.5125,0.229124 0.275,0.41659 -2.75,0.41659 -3.0249999,0 -4.2624999,-0.187466 -2.7499999,-0.41659 z m 0,-5 c 1.5124999,-0.229125 3.9874999,-0.229125 5.4999999,0 1.5125,0.229124 0.275,0.41659 -2.75,0.41659 -3.0249999,0 -4.2624999,-0.187466 -2.7499999,-0.41659 z m 0,-5 c 1.5124999,-0.229125 3.9874999,-0.229125 5.4999999,0 1.5125,0.229124 0.275,0.41659 -2.75,0.41659 -3.0249999,0 -4.2624999,-0.187466 -2.7499999,-0.41659 z M 23.54661,38 V 3 h 9.5 9.5 v 35 35 h -9.5 -9.5 z m 10.418213,27.393011 c 2.045398,-0.784893 2.048327,-4.276752 0.0042,-5.06114 -0.867648,-0.332948 -2.291492,0.108591 -3.164098,0.981196 -1.307727,1.307728 -1.360453,1.858993 -0.300014,3.136745 1.47373,1.775735 1.366494,1.746501 3.459866,0.943199 z M 40.04661,27.5 v -15 L 33.7093,12.200016 c -3.811404,-0.180417 -6.900376,0.16732 -7.75,0.872445 -1.082234,0.898174 -1.41269,4.165612 -1.41269,13.968196 0,7.037673 0.280282,13.526171 0.622849,14.418885 0.509514,1.327775 1.919707,1.570107 7.75,1.331788 L 40.04661,42.5 Z m -9.23625,4.782419 c 1.520062,-0.229855 3.770062,-0.223712 5,0.01365 1.229937,0.237362 -0.01375,0.425424 -2.76375,0.417917 -2.75,-0.0075 -3.756313,-0.201713 -2.23625,-0.431567 z m -1.01375,-4.998673 c 1.5125,-0.229125 3.9875,-0.229125 5.5,0 1.5125,0.229124 0.275,0.41659 -2.75,0.41659 -3.025,0 -4.2625,-0.187466 -2.75,-0.41659 z m 1.01375,-5.001327 c 1.520062,-0.229855 3.770062,-0.223712 5,0.01365 1.229937,0.237362 -0.01375,0.425424 -2.76375,0.417917 -2.75,-0.0075 -3.756313,-0.201713 -2.23625,-0.431567 z m 22.73625,48.549887 c 0,-0.642232 -2.049193,-15.993039 -4.553762,-34.112905 C 46.488279,18.599535 44.620796,3.5924807 44.842885,3.3703916 45.541949,2.6713275 62.579632,0.69968914 63.133683,1.2537401 63.699562,1.8196183 72.527361,64.08785 72.539409,67.59846 c 0.0064,1.869578 -0.892639,2.2242 -8.242799,3.251276 -10.214756,1.427362 -10.75,1.426494 -10.75,-0.01743 z m 10.83691,-9.223962 c 0.406742,-2.112043 -1.480605,-3.682302 -3.496226,-2.908835 -1.418449,0.54431 -1.821439,3.486403 -0.639448,4.668394 1.240529,1.240529 3.764732,0.166585 4.135674,-1.759559 z M 63.54661,41.109325 c 1.604403,-0.443658 2.62203,-1.540316 2.84064,-3.061248 0.532565,-3.70522 -2.842424,-25.408547 -4.159985,-26.751353 -1.348383,-1.3742173 -12.066114,-0.311265 -13.740079,1.3627 -0.973321,0.973321 -0.411465,6.899572 2.141769,22.590576 l 1.098358,6.75 4.659648,-0.09968 c 2.562807,-0.05482 5.784649,-0.410772 7.159649,-0.790995 z m -10,-9.072812 c 0,-0.836558 8.179742,-2.190104 8.897525,-1.472321 0.762148,0.762147 -0.286689,1.146489 -4.647525,1.703065 -2.3375,0.298336 -4.25,0.194501 -4.25,-0.230744 z m -1,-5 c 0,-0.836558 8.179742,-2.190104 8.897525,-1.472321 0.762148,0.762147 -0.286689,1.146489 -4.647525,1.703065 -2.3375,0.298336 -4.25,0.194501 -4.25,-0.230744 z M 52.057012,22.01683 c -0.56613,-0.916017 8.383279,-2.456482 9.247915,-1.591847 0.907907,0.907908 0.04288,1.261402 -4.508126,1.842248 -2.337395,0.298323 -4.4703,0.185642 -4.739789,-0.250401 z"
       id="path362"
       inkscape:connector-curvature="0" />
    <path
       style="fill:#2c3949;fill-opacity:1"
       d="M 2.0466101,37.5 V 3 h 9.7499999 9.75 V 37.5 72 h -9.75 -9.7499999 z M 13.395003,65.11486 C 15.623503,63.702597 14.340765,60.5 11.54661,60.5 c -1.6250267,0 -2.5967296,0.644502 -2.834698,1.880173 -0.3116039,1.618028 1.2451992,3.589201 2.834698,3.589201 0.275,0 1.106777,-0.384531 1.848393,-0.854514 z M 19.04661,27.5 v -15 h -7.5 -7.4999999 L 3.7670764,26.451845 c -0.1537435,7.673515 -0.047751,14.55586 0.2355386,15.294101 0.3806442,0.991943 2.4110129,1.2655 7.779534,1.048155 L 19.04661,42.5 Z M 8.7966101,32.283746 c 1.5124999,-0.229125 3.9874999,-0.229125 5.4999999,0 1.5125,0.229124 0.275,0.41659 -2.75,0.41659 -3.0249999,0 -4.2624999,-0.187466 -2.7499999,-0.41659 z m 0,-5 c 1.5124999,-0.229125 3.9874999,-0.229125 5.4999999,0 1.5125,0.229124 0.275,0.41659 -2.75,0.41659 -3.0249999,0 -4.2624999,-0.187466 -2.7499999,-0.41659 z m 0,-5 c 1.5124999,-0.229125 3.9874999,-0.229125 5.4999999,0 1.5125,0.229124 0.275,0.41659 -2.75,0.41659 -3.0249999,0 -4.2624999,-0.187466 -2.7499999,-0.41659 z M 23.54661,37.5 V 3 h 9.5 9.5 V 37.5 72 h -9.5 -9.5 z m 11.5,25.486305 c 0,-1.818517 -0.60552,-2.572289 -2.254471,-2.806442 -2.720556,-0.386321 -4.014689,2.188429 -2.199366,4.375761 1.873603,2.257552 4.453837,1.348401 4.453837,-1.569319 z m 5,-35.486305 v -15 L 34.600056,12.190924 C 24.109225,11.5956 24.54661,10.935985 24.54661,27.352385 c 0,7.872855 0.31784,14.632122 0.706312,15.020594 0.388472,0.388471 3.875972,0.575971 7.75,0.416666 L 40.04661,42.5 Z m -9.23625,4.782419 c 1.520062,-0.229855 3.770062,-0.223712 5,0.01365 1.229937,0.237362 -0.01375,0.425424 -2.76375,0.417917 -2.75,-0.0075 -3.756313,-0.201713 -2.23625,-0.431567 z m 0,-5 c 1.520062,-0.229855 3.770062,-0.223712 5,0.01365 1.229937,0.237362 -0.01375,0.425424 -2.76375,0.417917 -2.75,-0.0075 -3.756313,-0.201713 -2.23625,-0.431567 z m 0,-5 c 1.520062,-0.229855 3.770062,-0.223712 5,0.01365 1.229937,0.237362 -0.01375,0.425424 -2.76375,0.417917 -2.75,-0.0075 -3.756313,-0.201713 -2.23625,-0.431567 z m 18.445904,15.65106 C 46.658278,19.094408 44.654949,3.5583272 44.804422,3.4088548 45.346578,2.8666988 62.686871,0.8069274 63.113902,1.2339582 63.58075,1.7008062 72.54661,65.208043 72.54661,68.047987 c 0,1.296693 -1.303046,1.828676 -5.75,2.347499 -3.1625,0.368967 -7.340015,0.922849 -9.283368,1.230849 l -3.533367,0.56 z M 64.828149,62.75 C 65.468652,60.963704 63.733145,58 62.04661,58 c -2.097106,0 -3.684782,3.415218 -2.253196,4.846804 1.52794,1.52794 4.472459,1.471325 5.034735,-0.0968 z M 66.122522,39.816154 C 67.065089,38.846697 67.176189,37.182917 66.544285,33.5 66.072449,30.75 65.160783,24.578807 64.518361,19.786238 63.641763,13.246672 62.938163,10.942796 61.698466,10.552745 59.479319,9.8545249 49.683409,11.463201 48.411968,12.734642 c -1.299873,1.299873 2.442243,28.219398 4.061968,29.220443 1.673419,1.03423 12.161479,-0.609401 13.648586,-2.138931 z M 53.54661,31.776426 c 0,-0.427034 1.0125,-0.782571 2.25,-0.790081 1.2375,-0.0075 3.332867,-0.303395 4.656372,-0.657523 1.565041,-0.418756 2.179078,-0.276101 1.756268,0.408021 -0.762283,1.2334 -8.66264,2.181503 -8.66264,1.039583 z m -1,-5 c 0,-0.427034 1.0125,-0.782571 2.25,-0.790081 1.2375,-0.0075 3.332867,-0.303395 4.656372,-0.657523 1.565041,-0.418756 2.179078,-0.276101 1.756268,0.408021 -0.762283,1.2334 -8.66264,2.181503 -8.66264,1.039583 z m -0.476772,-4.738842 c -0.526739,-0.852281 8.500799,-2.34689 9.306839,-1.54085 0.832653,0.832653 -0.121354,1.201455 -4.579876,1.770497 -2.337395,0.298323 -4.464528,0.194982 -4.726963,-0.229647 z"
       id="path360"
       inkscape:connector-curvature="0" />
  </g>
  <path
     style="fill:#000000"
     d=""
     id="path340"
     inkscape:connector-curvature="0" />
</svg>
