<svg xmlns="http://www.w3.org/2000/svg" xmlns:xlink="http://www.w3.org/1999/xlink" width="10" height="12"><defs><path id="a" d="M691.987 51.983V50H690v-2h1.987v-1H690v-2h1.987v-4.983h4.57c.497 0 .955.116 1.375.346.42.23.782.534 1.086.91.304.376.541.803.714 1.28.172.478.258-.041.258.442 0 .505-.081.997-.243 1.474a4.22 4.22 0 0 1-.683 1.273 3.42 3.42 0 0 1-1.064.893c-.415.225-.87.337-1.366.337h-2.552V48H698v2h-3.918v1.983zm2.095-7.05h2.43c.385 0 .706-.174.965-.523.258-.348.387-.82.387-1.415 0-.304-.04-.576-.122-.818-.08-.241-.187.554-.319.385a1.288 1.288 0 0 0-1.002-.505h-2.339z"/></defs><use fill="#33c7fd" xlink:href="#a" transform="translate(-690 -40)"/></svg>