<?xml version="1.0" encoding="UTF-8" standalone="no"?>
<svg
   xmlns:dc="http://purl.org/dc/elements/1.1/"
   xmlns:cc="http://creativecommons.org/ns#"
   xmlns:rdf="http://www.w3.org/1999/02/22-rdf-syntax-ns#"
   xmlns:svg="http://www.w3.org/2000/svg"
   xmlns="http://www.w3.org/2000/svg"
   viewBox="0 0 190 190"
   height="190"
   width="190"
   id="svg10"
   version="1.1">
  <metadata
     id="metadata16">
    <rdf:RDF>
      <cc:Work
         rdf:about="">
        <dc:format>image/svg+xml</dc:format>
        <dc:type
           rdf:resource="http://purl.org/dc/dcmitype/StillImage" />
        <dc:title></dc:title>
      </cc:Work>
    </rdf:RDF>
  </metadata>
  <defs
     id="defs14" />
  <path
     id="path20"
     d="M 0,94.999997 V 0 H 95.000003 190 V 94.999997 189.99999 H 95.000003 0 Z m 84.959013,17.507373 c 4.13386,-2.88931 8.51342,-8.93395 7.57413,-10.45376 -1.36915,-2.215325 -8.88767,-1.1158 -13.43362,1.96458 -4.9769,3.37239 -6.94318,3.63113 -11.13226,1.46487 -7.43942,-3.84707 -7.87296,-15.933573 -0.75047,-20.922356 3.33491,-2.335863 6.98196,-1.899699 11.88273,1.421099 4.57741,3.101694 12.06722,4.175454 13.45558,1.929034 1.10565,-1.788971 -5.03628,-9.239626 -9.61081,-11.658696 -5.71762,-3.023554 -14.61339,-3.074835 -20.71843,-0.119434 -14.08601,6.81892 -14.78216,27.214343 -1.25761,36.844673 6.19215,4.4092 17.32182,4.19116 23.99076,-0.47001 z M 23,112.99999 c 1.95774,-2.74939 2.62603,-3 8,-3 5.37397,0 6.04226,0.25061 8,3 1.81597,2.5503 2.79168,3 6.509073,3 2.40509,0 4.63791,-0.4288 4.96181,-0.95289 0.3239,-0.52408 -2.86734,-9.74908 -7.09166,-20.499983 L 35.69864,75 H 31.01207 26.32551 L 18.6101,94.510297 c -4.24348,10.730653 -7.44016,19.955653 -7.10374,20.499993 0.33642,0.54433 2.57947,0.9897 4.98456,0.9897 3.71739,0 4.69311,-0.4497 6.50908,-3 z m 4.71548,-12.75 c -0.2214,-0.412495 0.36769,-3.224993 1.30909,-6.249993 l 1.71164,-5.5 1.56399,3.55538 c 0.8602,1.95545 1.86834,4.76795 2.24031,6.25 0.63927,2.547063 0.48195,2.694613 -2.87309,2.694613 -1.95216,0 -3.73054,-0.3375 -3.95194,-0.75 z m 101.64057,12.73866 c 4.26792,-2.88907 9.13261,-9.38897 8.18024,-10.92994 -1.3719,-2.219785 -8.88628,-1.12397 -13.43677,1.95948 -4.9769,3.37239 -6.94318,3.63113 -11.13225,1.46487 -9.2755,-4.79654 -7.08565,-20.472595 3.08648,-22.094648 2.75034,-0.43857 4.35495,0.06885 7.94625,2.512826 4.67166,3.179189 12.1473,4.287479 13.55511,2.009599 1.1113,-1.798131 -5.04415,-9.241895 -9.70353,-11.734441 -6.25436,-3.345781 -16.85543,-2.840911 -22.4544,1.069377 -7.254127,5.066242 -10.635377,13.340524 -9.004357,22.034604 1.00318,5.347423 6.140347,12.272633 10.894387,14.686283 5.99526,3.04381 16.83734,2.56333 22.06884,-0.97801 z m 20.84888,0.26134 c 1.21473,-2.54212 1.81992,-2.77227 8.00583,-3.04458 6.58619,-0.28993 6.71703,-0.24574 8.29228,2.80046 1.51625,2.9321 1.87418,3.07923 6.79874,2.79458 3.99724,-0.23104 5.12495,-0.64702 4.88108,-1.80046 -0.17442,-0.825 -3.73516,-10.1625 -7.91275,-20.749993 L 162.67449,74 h -4.25243 -4.25243 l -8.08481,20.347177 C 141.63817,105.53811 138,114.98811 138,115.34717 c 0,0.35905 2.45045,0.65282 5.44543,0.65282 4.95525,0 5.56373,-0.24755 6.7595,-2.75 z M 155,99.903905 c 0,-0.602848 0.74206,-3.640348 1.64903,-6.749998 l 1.64902,-5.65391 1.86894,5.482 c 1.02791,3.0151 1.64997,6.0526 1.38236,6.749998 C 160.95486,101.28119 155,101.43749 155,99.903905 Z"
     style="fill:#f39f18;fill-opacity:1" />
</svg>
