<?xml version="1.0" encoding="UTF-8" standalone="no"?>
<svg
   xmlns:dc="http://purl.org/dc/elements/1.1/"
   xmlns:cc="http://creativecommons.org/ns#"
   xmlns:rdf="http://www.w3.org/1999/02/22-rdf-syntax-ns#"
   xmlns:svg="http://www.w3.org/2000/svg"
   xmlns="http://www.w3.org/2000/svg"
   viewBox="0 0 68.768112 68.841187"
   height="68.841187"
   width="68.768112"
   id="svg827"
   version="1.1">
  <metadata
     id="metadata833">
    <rdf:RDF>
      <cc:Work
         rdf:about="">
        <dc:format>image/svg+xml</dc:format>
        <dc:type
           rdf:resource="http://purl.org/dc/dcmitype/StillImage" />
        <dc:title></dc:title>
      </cc:Work>
    </rdf:RDF>
  </metadata>
  <defs
     id="defs831" />
  <path
     id="path837"
     d="M 23.004888,66.982614 C 14.000642,63.742397 7.303676,57.529258 3.234138,48.640217 -3.163934,34.664986 0.08935301,19.12938 11.58968,8.7395255 18.427308,2.5621372 23.183198,0.64895332 32.929568,0.15497582 c 7.76195,-0.3934008 9.248,-0.1661943 14.43013,2.20626398 9.09301,4.1629178 13.85815,8.6812402 18.00555,17.0729332 3.53939,7.161474 3.64706,7.700612 3.23777,16.21271 -0.51717,10.755874 -3.45751,16.939075 -11.5894,24.371163 -9.03663,8.258973 -22.65927,11.048722 -34.00873,6.964568 z m 4.83131,-15.926147 c 3.59257,-3.242423 9.63101,-10.329923 13.41877,-15.75 3.78775,-5.420078 9.39213,-12.27376 12.45418,-15.230405 7.49399,-7.236041 2.95358,-4.734342 -9.41394,5.186943 -11.09049,8.896835 -21.21599,14.201638 -31.910508,16.718076 -7.231591,1.701606 -7.17496,2.113759 0.466596,3.395825 5.343602,0.896526 8.270222,4.061377 7.596242,8.214603 -0.29991,1.848149 -0.22984,3.360271 0.15571,3.360271 0.38556,0 3.64039,-2.652891 7.23295,-5.895313 z"
     style="fill:#f39f18;fill-opacity:1" />
</svg>
