<?xml version="1.0" encoding="UTF-8" standalone="no"?>
<svg
   xmlns:dc="http://purl.org/dc/elements/1.1/"
   xmlns:cc="http://creativecommons.org/ns#"
   xmlns:rdf="http://www.w3.org/1999/02/22-rdf-syntax-ns#"
   xmlns:svg="http://www.w3.org/2000/svg"
   xmlns="http://www.w3.org/2000/svg"
   viewBox="0 0 67.21785 72.016106"
   height="72.016106"
   width="67.21785"
   id="svg1382"
   version="1.1">
  <metadata
     id="metadata1388">
    <rdf:RDF>
      <cc:Work
         rdf:about="">
        <dc:format>image/svg+xml</dc:format>
        <dc:type
           rdf:resource="http://purl.org/dc/dcmitype/StillImage" />
        <dc:title></dc:title>
      </cc:Work>
    </rdf:RDF>
  </metadata>
  <defs
     id="defs1386" />
  <path
     id="path1392"
     d="m 28.337467,69.294965 c -2.475,-1.491414 -7.825073,-3.891038 -11.889052,-5.332496 L 9.0593622,61.341635 5.8481702,52.433592 c -1.766156,-4.899424 -3.929745,-10.593449 -4.807976,-12.653389 -1.53776502,-3.606914 -1.50101202,-3.958046 0.994383,-9.5 1.425142,-3.16506 3.594974,-8.860369 4.821849,-12.656242 l 2.230681,-6.901588 5.8817448,-2.2111308 c 3.23496,-1.216122 8.689845,-3.628656 12.121965,-5.3611866 L 33.331047,0 l 7.75321,3.8979669 c 4.26427,2.1438818 9.65342,4.4671761 11.97589,5.1628762 3.9409,1.1805039 4.32677,1.6229849 5.78267,6.6310969 0.858,2.951403 3.09338,8.730975 4.96751,12.843494 l 3.40752,7.477307 -2.80487,6.256404 c -1.54268,3.441022 -3.7762,9.215014 -4.96338,12.831092 l -2.15851,6.574688 -5.54101,1.746648 c -3.04755,0.960657 -8.50108,3.289547 -12.11896,5.175312 -3.61787,1.885765 -6.62648,3.424407 -6.6858,3.419204 -0.0593,-0.0052 -2.13285,-1.229709 -4.60785,-2.721124 z m 10.37827,-2.159185 c 2.81695,-1.589373 7.93423,-3.899668 11.37173,-5.13399 3.4375,-1.234322 6.25585,-2.746426 6.26299,-3.360232 0.007,-0.613805 2.00653,-6.059025 4.44307,-12.100488 l 4.43009,-10.98448 -2.08994,-4.51552 c -1.14946,-2.483537 -3.29728,-7.825156 -4.77292,-11.870266 -2.62928,-7.207534 -2.78146,-7.389634 -7.60314,-9.097817 -2.70608,-0.9586898 -7.7441,-3.1738129 -11.1956,-4.9224959 l -6.27544,-3.1794236 -4.22456,2.4031492 c -2.3235,1.321732 -7.48906,3.6558733 -11.479018,5.1869807 -6.835381,2.6230096 -7.315783,3.0115296 -8.3158008,6.7253116 -0.583731,2.167815 -2.609742,7.463206 -4.502246,11.767536 l -3.440915,7.826055 3.350858,8.322725 c 1.842972,4.577498 3.896596,9.982055 4.563608,12.010126 1.0922428,3.320995 1.8281428,3.894728 7.4058578,5.773856 3.406209,1.147549 8.443106,3.377404 11.193106,4.955234 2.75,1.57783 5.17022,2.917095 5.37827,2.976145 0.20806,0.05905 2.68306,-1.193033 5.5,-2.782406 z m -9.96342,-2.730892 c -2.15317,-1.303666 -6.614849,-3.281504 -9.914849,-4.395195 l -6,-2.024894 -4.2020798,-10.963551 -4.202079,-10.963552 2.325399,-5.266074 c 1.27897,-2.89634 3.13685,-7.844893 4.1286218,-10.996785 1.606229,-5.104657 2.193607,-5.854403 5.37668,-6.862935 1.965402,-0.622722 6.536607,-2.618234 10.158237,-4.4344711 l 6.58477,-3.3022493 6.76564,3.4051265 c 3.7211,1.8728189 8.48155,3.9192249 10.57877,4.5475689 3.11686,0.933835 3.92233,1.711711 4.41118,4.260057 0.32892,1.714688 2.14671,6.664427 4.03953,10.99942 l 3.4415,7.881805 -1.82577,3.618195 c -1.00418,1.990007 -2.85869,6.699801 -4.12115,10.466208 -1.78379,5.321772 -2.87082,7.079387 -4.87731,7.886153 -1.42007,0.570977 -6.22026,2.72054 -10.66709,4.776807 l -8.08516,3.738667 z m 5.58515,-5.438356 c 0,-1.132459 0.41783,-1.800785 0.92851,-1.485169 0.51068,0.315616 1.07318,-0.410078 1.25,-1.612655 0.37341,-2.539637 2.82149,-3.777336 2.82149,-1.426492 0,0.870833 0.675,1.583333 1.5,1.583333 2.08893,0 1.87166,-1.495177 -0.45455,-3.128028 -1.075,-0.754585 -2.23479,-2.55372 -2.57731,-3.998079 -0.55327,-2.333055 -0.36305,-2.578038 1.70455,-2.19534 1.54435,0.285848 3.46875,-0.529925 5.72017,-2.424839 2.9651,-2.495585 3.39286,-3.444355 3.39286,-7.525388 0,-2.568378 0.38571,-4.431394 0.85714,-4.140035 1.4658,0.905913 0.97756,9.066879 -0.62185,10.394269 -1.15536,0.95887 -1.23597,1.681531 -0.36836,3.302666 1.01737,1.900981 1.21282,1.93545 2.32786,0.410538 0.66949,-0.915572 1.51025,-1.371672 1.86837,-1.013554 0.59083,0.590829 0.73133,0.06523 1.05112,-3.93221 0.055,-0.6875 0.55,-1.5875 1.1,-2 0.62717,-0.470375 0.44075,-1.117125 -0.5,-1.734687 -1.15904,-0.760863 -1.19155,-0.988168 -0.14301,-1 0.74634,-0.0084 1.11901,-0.635478 0.82815,-1.393458 -0.29087,-0.75798 -0.024,-1.88298 0.59301,-2.5 0.82914,-0.82914 0.64634,-1.121855 -0.70059,-1.121855 -1.50657,0 -1.60668,-0.259988 -0.57756,-1.5 1.01786,-1.22644 0.95472,-1.5 -0.34617,-1.5 -1.00343,0 -1.37847,-0.553996 -1.01545,-1.5 0.31684,-0.825693 0.0299,-1.5 -0.63838,-1.5 -0.70553,0 -0.955,-0.674874 -0.59565,-1.611341 0.44245,-1.153001 0.18844,-1.446374 -0.89301,-1.031384 -1.1028,0.423184 -1.51134,-0.103306 -1.51134,-1.947677 0,-1.390197 -0.4176,-2.26954 -0.928,-1.954094 -0.5104,0.315446 -1.21573,-0.332997 -1.56739,-1.440983 -1.14871,-3.619253 -2.50531,-2.118549 -2.47281,2.735479 0.0327,4.889377 1.67372,8.25 4.02844,8.25 0.99991,0 1.05167,0.288095 0.20405,1.135714 -0.84762,0.847619 -1.53253,0.738904 -2.7,-0.428571 -0.86036,-0.860357 -1.56429,-2.046429 -1.56429,-2.635714 0,-0.589286 -0.45,-1.071429 -1,-1.071429 -1.56154,0 -1.1858,2.701873 1.06191,7.635903 1.87267,4.110762 1.92344,4.737508 0.5532,6.828767 -0.8298,1.266426 -2.84017,2.766737 -4.46749,3.334026 -2.5901,0.902913 -3.02446,0.780272 -3.48589,-0.984246 -0.33315,-1.27396 -0.97671,-1.737814 -1.74893,-1.260557 -0.86118,0.532242 -0.96221,0.34057 -0.34227,-0.649385 0.48376,-0.772479 0.75,-2.192008 0.59165,-3.154508 -0.17677,-1.074552 0.34749,-1.75 1.3583,-1.75 2.6823,0 1.06099,-2.472096 -1.84711,-2.816376 -2.1257,-0.251653 -2.88228,0.235654 -3.69835,2.382082 -0.56427,1.484152 -0.77119,3.50115 -0.45981,4.482219 0.31138,0.981069 0.0978,2.073189 -0.47453,2.426935 -0.57237,0.353746 -1.04068,1.720442 -1.04068,3.037104 0,3.306312 -2.04423,7.488036 -3.66051,7.488036 -0.73672,0 -1.33949,0.675 -1.33949,1.5 0,0.825 0.675,1.5 1.5,1.5 0.825,0 1.5,-0.7125 1.5,-1.583333 0,-2.342798 2.4474,-1.117459 2.81955,1.411661 0.17575,1.19442 0.73825,2.171672 1.25,2.171672 0.51175,0 0.93045,0.675 0.93045,1.5 0,0.825 0.45,1.5 1,1.5 0.55,0 1,-0.926558 1,-2.059017 z m -3.5,-5.940983 c -0.36506,-0.590673 0.73644,-0.993732 2.69098,-0.984687 2.50438,0.01159 2.94427,0.251033 1.80902,0.984687 -1.94392,1.256262 -3.72359,1.256262 -4.5,0 z M 18.353035,46.506791 c 1.027575,-1.238152 0.957818,-1.85317 -0.377555,-3.32874 -1.887649,-2.085829 -2.234911,-9.665564 -0.492169,-10.742638 0.813557,-0.502806 0.941839,0.104649 0.442361,2.094724 -1.272583,5.070375 3.155323,11.306595 8.661795,12.199189 2.73024,0.44257 2.05404,-2.410652 -0.73735,-3.111246 -1.36804,-0.343357 -3.19188,-1.699537 -4.052976,-3.013734 -1.417337,-2.163129 -1.418535,-2.741492 -0.01265,-6.106247 0.854136,-2.044239 1.552976,-4.811936 1.552976,-6.150438 v -2.433639 l -2.468398,2.805763 c -1.357619,1.54317 -2.482619,2.312118 -2.5,1.708774 -0.01738,-0.603345 0.868399,-2.134699 1.968399,-3.40301 2.134019,-2.460541 2.928969,-12 1,-12 -0.55,0 -1.014312,1.6875 -1.031803,3.75 -0.0298,3.514195 -0.124126,3.627939 -1.5,1.80887 -1.40947,-1.863485 -1.468197,-1.834741 -1.468197,0.718616 0,1.953375 -0.398367,2.506877 -1.5,2.08414 -0.949843,-0.364489 -1.5,0.01379 -1.5,1.031385 0,0.883844 -0.5051,1.606989 -1.122445,1.606989 -0.775506,0 -0.737659,0.463637 0.122445,1.5 1.025676,1.235864 0.93763,1.5 -0.5,1.5 -1.43763,0 -1.525676,0.264136 -0.5,1.5 0.703211,0.847317 0.807238,1.5 0.239076,1.5 -1.346567,0 -2.297038,3.846143 -1.128884,4.568102 0.507337,0.313552 0.63244,1.039312 0.278005,1.6128 -0.354435,0.573488 -0.02428,1.435503 0.733688,1.915589 0.997958,0.632096 1.033299,0.877108 0.128115,0.888196 -0.6875,0.0084 -1.25,0.495637 -1.25,1.082701 0,0.641671 0.89739,0.796263 2.25,0.387605 1.8356,-0.554582 2.019778,-0.438069 1,0.632612 -1.708294,1.793565 -1.572447,2.97336 0.261341,2.26967 1.081445,-0.41499 1.335459,-0.121617 0.893011,1.031384 -0.782413,2.038937 0.945054,2.100186 2.611215,0.09258 z m 2.525552,0.452227 c 1.07627,-1.741443 -0.149522,-2.110241 -1.521063,-0.457635 -0.788749,0.950384 -0.864611,1.524166 -0.201518,1.524166 0.584886,0 1.360047,-0.479939 1.722581,-1.066531 z m 26.82051,-0.433469 c -0.6086,-1.585976 -2.36163,-2.080842 -2.36163,-0.666667 0,1.057514 1.09309,2.166667 2.13528,2.166667 0.44108,0 0.54293,-0.675 0.22635,-1.5 z m -19.36163,-4.531385 c 0,-0.567261 -0.66055,-1.284862 -1.46789,-1.594668 -1.11863,-0.429257 -1.32423,-1.61148 -0.86408,-4.968616 0.67666,-4.936775 -0.52277,-5.779128 -2.41803,-1.698164 -1.728569,3.722042 -1.563236,6.334567 0.5,7.900787 2.10671,1.599224 4.25,1.781106 4.25,0.360661 z m 14.15875,-0.293935 c 0.91231,-0.693942 1.79899,-1.91713 1.9704,-2.718196 0.34576,-1.615927 -2.24945,-7.956484 -3.25663,-7.956484 -1.5176,0 -1.6952,4.538448 -0.24051,6.145869 1.41871,1.567657 1.37118,1.835194 -0.53789,3.027423 -1.15176,0.719291 -2.09412,1.649556 -2.09412,2.067255 0,1.159729 2.30192,0.846515 4.15875,-0.565867 z"
     style="fill:#f39f18;fill-opacity:1" />
</svg>
