<?xml version="1.0" encoding="UTF-8" standalone="no"?>
<svg
   xmlns:dc="http://purl.org/dc/elements/1.1/"
   xmlns:cc="http://creativecommons.org/ns#"
   xmlns:rdf="http://www.w3.org/1999/02/22-rdf-syntax-ns#"
   xmlns:svg="http://www.w3.org/2000/svg"
   xmlns="http://www.w3.org/2000/svg"
   viewBox="0 0 55.301601 73"
   height="73"
   width="55.301601"
   id="svg1937"
   version="1.1">
  <metadata
     id="metadata1943">
    <rdf:RDF>
      <cc:Work
         rdf:about="">
        <dc:format>image/svg+xml</dc:format>
        <dc:type
           rdf:resource="http://purl.org/dc/dcmitype/StillImage" />
        <dc:title></dc:title>
      </cc:Work>
    </rdf:RDF>
  </metadata>
  <defs
     id="defs1941" />
  <path
     id="path1947"
     d="M 12.450103,72.36052 C 10.639518,70.549935 14.219173,70 27.815268,70 c 12.614206,0 14.940986,0.233597 14.940986,1.5 0,1.265918 -2.31482,1.5 -14.833336,1.5 -8.158334,0 -15.121101,-0.287766 -15.472815,-0.63948 z M 12.702492,68.75 c -0.02957,-0.1375 -0.142066,-3.062774 -0.25,-6.50061 L 12.25625,55.998781 27.506251,55.99939 42.756254,56 V 62.5 69 H 27.756251 c -8.25,0 -15.024192,-0.1125 -15.053759,-0.25 z m 10.449212,-16.5 c 0.905757,-2.98942 2.55442,-10.684694 2.580101,-12.042841 0.01345,-0.711063 -1.96089,-3.415326 -4.387411,-6.009473 -2.426522,-2.594148 -5.113498,-6.51237 -5.971058,-8.707159 C 13.557991,20.844437 11.774647,10.350236 11.763804,4.25 L 11.756204,0 h 15.64366 15.64361 l -0.55925,10.249999 c -0.66859,12.253797 -2.41748,17.56712 -7.936744,24.112641 l -4.136073,4.905137 1.22074,5.910238 c 0.671406,3.250631 1.472141,6.565381 1.77941,7.366111 C 33.860179,53.713215 32.852462,54 28.295852,54 23.356359,54 22.690145,53.773359 23.151704,52.25 Z m 19.25953,-20.078741 c -2.326739,-2.571023 -2.060871,-5.138166 0.84642,-8.172723 2.37659,-2.480621 8.06117,-18.8595708 6.63218,-19.109227 -0.34847,-0.06088 -1.64608,-0.028675 -2.88358,0.071566 -1.6679,0.1351044 -2.25,-0.3536837 -2.25,-1.8893091 0,-1.8428807 0.60369,-2.0715655 5.46861,-2.0715655 3.93964,0 5.3473,0.3494901 5.03473,1.25 -0.23864,0.6875 -1.79109,6.1917047 -3.44988,12.2315656 -2.17226,7.909452 -3.65067,11.47423 -5.28473,12.742641 -1.83878,1.427328 -2.00423,1.932857 -0.87302,2.66751 C 47.077674,30.817626 46.528194,34 44.942624,34 c -0.48202,0 -1.62114,-0.822933 -2.53139,-1.828741 z m -33.6549831,-0.237 c 0,-0.586158 0.449661,-1.905941 0.999247,-2.932852 C 10.545113,27.525996 10.360735,27.009244 8.8766249,26.538205 7.1462739,25.989013 5.4850109,21.295255 0.10332884,1.75 -0.31376716,0.2351875 0.36969284,0 5.1888629,0 10.089583,0 10.75625,0.2394899 10.75625,2 c 0,1.5653196 -0.666667,2 -3.0673871,2 -2.661805,0 -2.979186,0.2778998 -2.400323,2.1017351 0.366886,1.1559543 1.502689,5.0237599 2.524008,8.5951259 1.124475,3.932086 2.8601731,7.423155 4.4003221,8.850516 2.999627,2.77996 3.249265,5.503832 0.714639,7.797635 -2.076317,1.879041 -4.1712581,2.17498 -4.1712581,0.589247 z"
     style="fill:#f39f18;fill-opacity:1" />
</svg>
