<?xml version="1.0" encoding="UTF-8" standalone="no"?>
<!-- Created with Inkscape (http://www.inkscape.org/) -->

<svg
   xmlns:dc="http://purl.org/dc/elements/1.1/"
   xmlns:cc="http://creativecommons.org/ns#"
   xmlns:rdf="http://www.w3.org/1999/02/22-rdf-syntax-ns#"
   xmlns:svg="http://www.w3.org/2000/svg"
   xmlns="http://www.w3.org/2000/svg"
   xmlns:sodipodi="http://sodipodi.sourceforge.net/DTD/sodipodi-0.dtd"
   xmlns:inkscape="http://www.inkscape.org/namespaces/inkscape"
   version="1.1"
   id="svg78"
   width="430.91544"
   height="455.92813"
   viewBox="0 0 430.91544 455.92813"
   sodipodi:docname="1.svg"
   inkscape:version="0.92.0 r15299">
  <metadata
     id="metadata84">
    <rdf:RDF>
      <cc:Work
         rdf:about="">
        <dc:format>image/svg+xml</dc:format>
        <dc:type
           rdf:resource="http://purl.org/dc/dcmitype/StillImage" />
        <dc:title></dc:title>
      </cc:Work>
    </rdf:RDF>
  </metadata>
  <defs
     id="defs82" />
  <sodipodi:namedview
     pagecolor="#ffffff"
     bordercolor="#666666"
     borderopacity="1"
     objecttolerance="10"
     gridtolerance="10"
     guidetolerance="10"
     inkscape:pageopacity="0"
     inkscape:pageshadow="2"
     inkscape:window-width="1920"
     inkscape:window-height="1017"
     id="namedview80"
     showgrid="false"
     fit-margin-top="0"
     fit-margin-left="0"
     fit-margin-right="0"
     fit-margin-bottom="0"
     inkscape:zoom="0.71467752"
     inkscape:cx="-94.975875"
     inkscape:cy="282.95723"
     inkscape:window-x="-8"
     inkscape:window-y="-8"
     inkscape:window-maximized="1"
     inkscape:current-layer="svg78" />
  <path
     style="fill:#ffffff;stroke-width:0.99442476"
     d="m 301.69893,453.99528 c -17.57159,-4.86422 -30.36572,-16.69001 -36.6861,-33.90949 l -2.82712,-7.70228 v -36.60137 c 0,-40.02117 0.25537,-42.32854 5.94122,-53.68201 4.00336,-7.9939 14.127,-17.98236 22.50976,-22.20923 11.52856,-5.81308 14.14096,-6.09583 56.32209,-6.09583 37.53498,0 38.39098,0.0435 45.87976,2.33455 9.48894,2.90289 15.88476,6.80425 23.0979,14.08939 6.65085,6.71723 11.52672,15.55928 13.48303,24.45052 1.78441,8.10998 2.05969,69.80849 0.35138,78.75477 -3.7002,19.3777 -19.8179,35.84191 -40.05984,40.92109 -9.1578,2.2979 -79.45654,2.01825 -88.01208,-0.35011 z m 52.18801,-22.82307 c 7.11268,-4.66348 7.55391,-5.98323 7.90876,-23.65556 l 0.32038,-15.95546 17.08515,-0.32525 c 15.44636,-0.29404 17.35925,-0.52109 19.94281,-2.36705 9.94384,-7.10494 9.94384,-19.06857 0,-26.1735 -2.58358,-1.84599 -4.49644,-2.07301 -19.94422,-2.36708 l -17.08656,-0.32526 -0.31897,-16.44339 c -0.28866,-14.88125 -0.52032,-16.70485 -2.43844,-19.19547 -7.37661,-9.57832 -19.79237,-9.57832 -27.16898,0 -1.91918,2.49199 -2.14972,4.31372 -2.43949,19.27672 l -0.32,16.52464 h -15.16322 c -16.81322,0 -19.72638,0.68344 -24.72315,5.8001 -2.75183,2.81786 -3.03947,3.72985 -3.03947,9.63657 0,7.70582 1.83006,10.80307 8.17186,13.83025 3.58084,1.70926 6.12101,1.96625 19.43514,1.96625 h 15.3159 l 0.32147,16.0367 c 0.28998,14.46521 0.52918,16.30637 2.44096,18.78871 3.59662,4.66998 8.30123,7.14416 13.58449,7.14416 3.27479,0 5.81419,-0.68715 8.11558,-2.19608 z m -214.8001,-41.7491 C 94.91447,386.22799 48.89406,378.54732 12.98964,368.37783 L 0,364.69868 0.69393,351.93972 C 2.77107,313.74843 12.11278,277.72345 28.04678,246.4573 41.74685,219.57466 56.17616,200.88858 78.73875,180.81082 l 8.04014,-7.15469 8.67699,8.25597 c 19.43755,18.49447 42.16883,29.8011 68.37579,34.01042 10.33323,1.6597 31.83356,1.36646 42.33627,-0.57742 24.70486,-4.57249 46.98058,-15.88803 64.89258,-32.96391 l 8.94152,-8.52413 6.7958,5.63746 c 27.65661,22.94258 50.7794,57.30224 64.60439,95.99986 l 2.35369,6.58825 H 330.4709 c -27.69218,0 -34.90726,1.09762 -47.00884,7.15139 -15.32168,7.66461 -26.68179,21.36441 -30.90426,37.26918 -1.77598,6.68958 -2.02342,10.829 -2.02342,33.84912 0,20.10623 -0.29558,26.32597 -1.26645,26.64947 -7.11923,2.37215 -86.68703,4.12071 -110.18109,2.42132 z m 29.88821,-195.213 c -8.40333,-1.25042 -22.01725,-5.40838 -29.90384,-9.13322 -21.36195,-10.08926 -39.84105,-28.75658 -48.6532,-49.14872 -6.30088,-14.58082 -7.44813,-20.57187 -7.4308,-38.804464 0.0145,-15.222488 0.2431,-17.317985 2.76897,-25.37695 C 91.0142,54.970637 98.30387,42.527669 109.69585,30.883301 139.06539,0.86312229 183.62424,-8.1873315 223.43964,7.7805353 249.1101,18.075609 271.08113,41.337161 279.7086,67.354592 c 3.77708,11.390382 4.71902,17.757369 4.62065,31.233169 -0.0787,10.789689 -0.56227,14.877119 -2.66925,22.564869 -4.88061,17.80807 -12.21223,30.27854 -25.83681,43.94627 -13.64769,13.69092 -28.70271,22.15674 -47.72106,26.83476 -11.01116,2.70846 -29.13669,3.76302 -39.12708,2.27645 z"
     id="path88"
     inkscape:connector-curvature="0" />
</svg>
