<?xml version="1.0" encoding="UTF-8" standalone="no"?>
<!-- Created with Inkscape (http://www.inkscape.org/) -->

<svg
   xmlns:dc="http://purl.org/dc/elements/1.1/"
   xmlns:cc="http://creativecommons.org/ns#"
   xmlns:rdf="http://www.w3.org/1999/02/22-rdf-syntax-ns#"
   xmlns:svg="http://www.w3.org/2000/svg"
   xmlns="http://www.w3.org/2000/svg"
   xmlns:sodipodi="http://sodipodi.sourceforge.net/DTD/sodipodi-0.dtd"
   xmlns:inkscape="http://www.inkscape.org/namespaces/inkscape"
   version="1.1"
   id="svg120"
   width="147.9113"
   height="220.16376"
   viewBox="0 0 147.9113 220.16376"
   sodipodi:docname="2.svg"
   inkscape:version="0.92.0 r15299">
  <metadata
     id="metadata126">
    <rdf:RDF>
      <cc:Work
         rdf:about="">
        <dc:format>image/svg+xml</dc:format>
        <dc:type
           rdf:resource="http://purl.org/dc/dcmitype/StillImage" />
        <dc:title></dc:title>
      </cc:Work>
    </rdf:RDF>
  </metadata>
  <defs
     id="defs124" />
  <sodipodi:namedview
     pagecolor="#ffffff"
     bordercolor="#666666"
     borderopacity="1"
     objecttolerance="10"
     gridtolerance="10"
     guidetolerance="10"
     inkscape:pageopacity="0"
     inkscape:pageshadow="2"
     inkscape:window-width="1920"
     inkscape:window-height="1017"
     id="namedview122"
     showgrid="false"
     fit-margin-top="0"
     fit-margin-left="0"
     fit-margin-right="0"
     fit-margin-bottom="0"
     inkscape:zoom="2.1454545"
     inkscape:cx="52.405654"
     inkscape:cy="100.80935"
     inkscape:window-x="-8"
     inkscape:window-y="-8"
     inkscape:window-maximized="1"
     inkscape:current-layer="svg120" />
  <path
     style="fill:#ffffff"
     d="m 40.095054,217.66771 c -0.76379,-1.67634 -0.82463,-3.31834 -0.18527,-5 l 0.95201,-2.50396 h 51.69601 c 46.700366,0 51.872736,0.15993 53.524756,1.65499 2.32919,2.10788 2.32919,4.58214 0,6.69002 -1.65184,1.4949 -6.81152,1.65499 -53.339496,1.65499 H 41.232324 Z M 0.2818238,213.68697 c -0.5553,-1.4471 -0.40299,-3.33887 1.49133,-18.52322 0.51461,-4.125 1.43616,-11.96744 2.04787,-17.42764 0.61171,-5.4602 1.34214,-10.15757 1.62318,-10.4386 0.28103,-0.28104 2.4136,0.45681 4.7390302,1.63966 7.18054,3.65244 31.05418,18.6676 31.41036,19.75531 0.18527,0.56581 -0.90496,1.76364 -2.42272,2.66185 -1.51777,0.89822 -9.95958,6.62113 -18.75958,12.71758 -8.8,6.09645 -16.8016202,11.08612 -17.7813902,11.08815 -0.97976,0.002 -2.03638996,-0.66086 -2.34808,-1.47309 z M 56.076194,167.97133 c -4.58431,-2.79815 -8.54719,-5.64022 -8.8064,-6.31573 -0.25922,-0.6755 2.53972,-6.12501 6.21985,-12.11002 3.68013,-5.98501 9.2677,-15.15683 12.41681,-20.38183 3.14911,-5.225 10.80619,-17.82501 17.01574,-28.00001 6.20955,-10.174996 12.38584,-20.412496 13.72509,-22.749996 1.33925,-2.3375 3.06529,-4.25 3.835636,-4.25 1.62875,0 18.42963,9.898593 18.42581,10.855952 -0.001,0.354226 -4.78028,8.519048 -10.61971,18.144044 -11.980586,19.74733 -25.581116,42.24011 -35.324676,58.42053 -3.61688,6.00628 -7.02095,11.04518 -7.5646,11.19755 -0.54365,0.15237 -4.73925,-2.01235 -9.32355,-4.81049 z m -36.3149,-22.11482 c -3.6575,-2.30602 -7.66038,-4.89136 -8.8953,-5.74521 L 8.6206938,138.55884 16.149784,126.1113 c 4.141,-6.84615 12.58979,-20.77256 18.7751,-30.947556 6.1853,-10.175 14.61906,-24.125 18.74168,-31 4.12262,-6.875 7.81593,-12.854225 8.20736,-13.287167 0.82662,-0.91427 19.03737,10.018709 19.03737,11.429245 0,0.930428 -3.72751,7.212496 -26.02339,43.857918 -6.19069,10.175 -13.94843,23.00001 -17.23942,28.50001 -6.99398,11.68853 -9.61404,15.52177 -10.55529,15.44276 -0.37504,-0.0315 -3.6744,-1.94399 -7.3319,-4.25 z M 122.38381,71.790599 C 120.13113,70.222419 99.026204,57.2904 81.661294,46.837924 c -6.4625,-3.889978 -11.75,-7.700201 -11.75,-8.467163 0,-1.75682 6.19854,-12.207017 7.2406,-12.207017 0.69008,0 21.24169,12.242042 40.259406,23.981443 3.85,2.376558 8.90825,5.41406 11.24056,6.750005 2.33231,1.335945 4.4917,2.835344 4.79865,3.331999 0.60091,0.972285 -7.12519,12.936553 -8.35396,12.936553 -0.40713,0 -1.62787,-0.617915 -2.71274,-1.373145 z m 0.0275,-33.661021 C 100.68744,24.776119 95.295794,21.431727 89.172314,17.51173 l -5.23897,-3.353775 2.93481,-4.7696733 c 6.92088,-11.2478762 12.22716,-12.1074452 25.219736,-4.0853752 4.57788,2.8265387 13.27341,8.0895315 19.32341,11.6955405 13.93331,8.304729 16.5,10.915395 16.5,16.782667 0,3.284474 -0.82719,5.670938 -3.25,9.376278 -1.7875,2.733729 -3.925,4.933704 -4.75,4.888831 -0.825,-0.04487 -8.7,-4.507362 -17.5,-9.916645 z"
     id="path130"
     inkscape:connector-curvature="0" />
</svg>
