<?xml version="1.0" encoding="UTF-8" standalone="no"?>
<!-- Created with Inkscape (http://www.inkscape.org/) -->

<svg
   xmlns:dc="http://purl.org/dc/elements/1.1/"
   xmlns:cc="http://creativecommons.org/ns#"
   xmlns:rdf="http://www.w3.org/1999/02/22-rdf-syntax-ns#"
   xmlns:svg="http://www.w3.org/2000/svg"
   xmlns="http://www.w3.org/2000/svg"
   xmlns:sodipodi="http://sodipodi.sourceforge.net/DTD/sodipodi-0.dtd"
   xmlns:inkscape="http://www.inkscape.org/namespaces/inkscape"
   version="1.1"
   id="svg132"
   width="225.91377"
   height="308.47977"
   viewBox="0 0 225.91377 308.47977"
   sodipodi:docname="3.svg"
   inkscape:version="0.92.0 r15299">
  <metadata
     id="metadata138">
    <rdf:RDF>
      <cc:Work
         rdf:about="">
        <dc:format>image/svg+xml</dc:format>
        <dc:type
           rdf:resource="http://purl.org/dc/dcmitype/StillImage" />
        <dc:title></dc:title>
      </cc:Work>
    </rdf:RDF>
  </metadata>
  <defs
     id="defs136" />
  <sodipodi:namedview
     pagecolor="#ffffff"
     bordercolor="#666666"
     borderopacity="1"
     objecttolerance="10"
     gridtolerance="10"
     guidetolerance="10"
     inkscape:pageopacity="0"
     inkscape:pageshadow="2"
     inkscape:window-width="1920"
     inkscape:window-height="1017"
     id="namedview134"
     showgrid="false"
     fit-margin-top="0"
     fit-margin-left="0"
     fit-margin-right="0"
     fit-margin-bottom="0"
     inkscape:zoom="1.1683168"
     inkscape:cx="244.83909"
     inkscape:cy="156.3702"
     inkscape:window-x="-8"
     inkscape:window-y="-8"
     inkscape:window-maximized="1"
     inkscape:current-layer="svg132" />
  <path
     style="fill:#ffffff;stroke-width:3.08240604"
     d="m 152.73454,260.99288 -31.71319,-47.83899 -26.525897,0.71838 c -20.60255,0.55799 -29.53516,-0.64354 -40.002,-5.38069 C 19.090973,192.46895 1.6992233,167.77334 0.1123133,131.27257 -1.4604767,95.095269 13.496673,67.876228 44.265223,50.923206 70.801173,36.302312 113.76189,35.953937 135.32167,50.184838 c 6.32822,4.177074 6.27011,4.446309 -3.15783,14.621523 -9.07722,9.79669 -10.1868,10.1895 -20.19962,7.150921 -14.317197,-4.344802 -41.346497,-2.827198 -51.423967,2.887269 -18.84287,10.684914 -33.34029,35.652529 -32.40388,55.806339 0.65221,14.03735 13.45324,34.6403 27.82839,44.78923 9.12166,6.43993 16.27406,8.6838 29.18383,9.1556 22.300957,0.81504 30.410847,-1.79625 43.397247,-13.97346 13.06666,-12.25244 20.54966,-27.8856 22.0971,-46.16412 0.8725,-10.30621 3.55096,-16.03954 10.6641,-22.82685 13.06571,-12.467238 16.62363,-8.249236 17.65155,20.92627 0.89041,25.27072 -3.14552,39.52638 -15.71493,55.50924 l -7.4924,9.52704 31.97215,49.08103 c 17.58466,26.99457 32.0704,51.19621 32.1905,53.78144 0.28281,6.08838 -17.19095,17.54203 -27.47814,18.01121 -7.03208,0.31983 -11.78334,-5.36089 -39.70123,-47.47464 z M 74.451363,137.63895 c -19.67156,-17.70541 -22.89311,-25.81177 -13.7638,-34.63358 7.80697,-7.543976 15.76053,-6.949183 26.20401,1.95965 l 9.09483,7.75836 53.387437,-56.22411 c 32.07673,-33.781104 55.79255,-56.33036988 59.41273,-56.49033088 7.427,-0.328137 16.77214,8.43972198 17.12662,16.06863588 0.30745,6.614265 -121.66246,137.853365 -128.393267,138.150755 -2.43095,0.10749 -12.81182,-7.35781 -23.06856,-16.58938 z"
     id="path142"
     inkscape:connector-curvature="0" />
</svg>
