<?xml version="1.0" encoding="UTF-8" standalone="no"?>
<svg
   xmlns:dc="http://purl.org/dc/elements/1.1/"
   xmlns:cc="http://creativecommons.org/ns#"
   xmlns:rdf="http://www.w3.org/1999/02/22-rdf-syntax-ns#"
   xmlns:svg="http://www.w3.org/2000/svg"
   xmlns="http://www.w3.org/2000/svg"
   viewBox="0 0 500.3002 564.11755"
   height="564.11755"
   width="500.3002"
   id="svg144"
   version="1.1">
  <metadata
     id="metadata150">
    <rdf:RDF>
      <cc:Work
         rdf:about="">
        <dc:format>image/svg+xml</dc:format>
        <dc:type
           rdf:resource="http://purl.org/dc/dcmitype/StillImage" />
        <dc:title></dc:title>
      </cc:Work>
    </rdf:RDF>
  </metadata>
  <defs
     id="defs148" />
  <path
     id="path154"
     d="M 24.60079,562.85074 C 18.29033,561.36085 13.06354,557.57319 7.02864,550.11685 3.39779,545.63082 2.19821,542.29852 1.29678,534.19431 0.66977,528.55725 0.1215,423.62915 0.0784,301.02072 L 0,78.096326 4.31567,72.145511 c 6.29402,-8.67874 14.62259,-15.476168 21.20036,-17.302829 3.34239,-0.928188 24.67254,-1.679056 50.77571,-1.787417 24.75667,-0.10277 49.40015,-0.621569 54.76328,-1.152885 l 9.75113,-0.96603 2.13097,-8.355099 c 4.03267,-15.811394 15.62395,-30.343636 30.17549,-37.8316888 6.15836,-3.169023 10.47734,-4.09288703 21.58525,-4.61724903 15.12981,-0.714221 22.10371,1.29993803 34.82956,10.05923183 7.71598,5.310973 16.85463,19.465539 19.16511,29.684246 0.99596,4.404889 2.14045,9.210485 2.54334,10.679101 0.68038,2.48016 4.66196,2.670816 55.9412,2.67872 32.78996,0.005 57.48223,0.639981 60.80752,1.563582 3.07937,0.85529 9.00269,4.615417 13.16294,8.355839 10.17976,9.152482 11.10782,13.496895 12.12997,56.782537 0.96654,40.92987 0.10864,45.33598 -10.61357,54.51383 -11.28419,9.65885 -26.51371,8.86256 -38.15348,-1.99489 -7.60284,-7.09186 -8.67193,-12.0991 -8.76035,-41.03038 l -0.0664,-21.74314 -15.6398,0.18053 c -22.11435,0.25526 -23.86651,0.81263 -28.17466,8.96241 -4.57552,8.65559 -10.0324,14.37313 -17.05549,17.87023 -5.05303,2.51612 -11.19057,2.74061 -74.92934,2.74061 -77.43677,0 -73.20383,0.54886 -84.52691,-10.96023 -3.1514,-3.20318 -7.01457,-8.30051 -8.58482,-11.32742 -2.4975,-4.8143 -3.75156,-5.62634 -10.01465,-6.48479 -3.9378,-0.53974 -14.61669,-0.98134 -23.73087,-0.98134 H 56.45593 v 199.12143 199.12144 h 168.82662 168.82662 l -0.83977,15.23993 c -0.99641,18.08273 -4.37235,26.48706 -13.56386,33.76686 -5.10551,4.04363 -7.9857,5.02279 -17.80848,6.05418 -15.16869,1.59271 -330.51338,1.46735 -337.29627,-0.13412 z M 206.01098,72.679495 c 19.94093,-10.107454 15.20212,-37.497058 -7.22079,-41.734959 -6.14473,-1.161346 -17.38037,3.95447 -21.07751,9.597028 -7.08384,10.81131 -2.73697,26.63775 8.89815,32.397067 8.12411,4.021385 11.03177,3.982546 19.40015,-0.259136 z M 332.33682,478.1146 c -40.17305,-9.01452 -75.64783,-37.13659 -94.24399,-74.71042 -11.42943,-23.09334 -12.97756,-30.4338 -12.87225,-61.03339 0.0746,-21.68215 0.6315,-27.91697 3.39315,-37.99027 6.5942,-24.05269 23.34006,-49.66948 43.8765,-67.11956 27.81612,-23.63571 50.95781,-31.68607 91.42141,-31.803 25.09833,-0.0725 36.36919,2.16118 55.03034,10.90609 31.15445,14.59945 52.34695,35.16456 67.56665,65.56642 11.2297,22.43171 14.5393,38.46994 13.6561,66.17784 -0.6359,19.95322 -1.1338,23.00621 -6.0971,37.38635 -9.3704,27.14883 -26.5252,51.1769 -48.38,67.76403 -12.04444,9.14134 -33.76328,19.84197 -47.44471,23.37545 -14.13629,3.65098 -52.40255,4.51056 -65.9061,1.48046 z m 25.92578,-55.139 c 5.01827,-3.13484 6.73916,-6.22507 35.96522,-64.58355 28.70244,-57.31289 36.05577,-73.68052 34.96892,-77.83663 -1.20889,-4.62279 -8.57429,-12.05663 -14.16964,-14.3013 -8.41424,-3.37551 -14.76809,-0.51658 -21.65313,9.74285 -3.09752,4.61565 -14.00651,24.87111 -24.24219,45.01213 -22.5637,44.39917 -23.85263,46.6112 -26.55561,45.57397 -1.16007,-0.44516 -6.39223,-5.98729 -11.62702,-12.31584 -10.4935,-12.686 -16.64092,-16.36926 -23.86341,-14.29788 -15.78597,4.52735 -20.07468,16.94113 -10.87397,31.47503 6.58529,10.40244 32.03758,43.22803 37.55555,48.43503 7.52984,7.10551 16.30216,8.21431 24.49528,3.09619 z m -256.03162,17.04861 v -34.33128 h 34.33128 34.33128 v 34.33128 34.33128 h -34.33128 -34.33128 z m 48.82671,0 v -14.49543 h -14.49543 -14.49543 v 14.49543 14.49543 h 14.49543 14.49543 z M 102.23098,342.37079 V 308.0395 h 34.33128 34.33128 v 34.33129 34.33128 h -34.33128 -34.33128 z m 47.65897,10.83153 c 0.61656,-0.92209 1.13153,-6.99787 1.14438,-13.50174 l 0.0233,-11.82522 H 136.5622 122.06677 v 14.50432 14.50434 l 13.35106,-1.00259 c 7.34308,-0.55142 13.85551,-1.75703 14.47207,-2.67911 z M 102.23098,241.66569 v -34.33127 h 34.33128 34.33128 v 34.33127 34.33128 h -34.33128 -34.33128 z m 48.82671,0 v -14.49543 h -14.49543 -14.49543 v 14.49543 14.49543 h 14.49543 14.49543 z"
     style="fill:#ffffff;stroke-width:1.5258348" />
</svg>
