<svg class="copyright__icon" width="27" height="34" version="1.1" id="Layer_1" xmlns="http://www.w3.org/2000/svg" xmlns:xlink="http://www.w3.org/1999/xlink" x="0px" y="0px"
	 viewBox="0 0 27 34" style="enable-background:new 0 0 27 34;" xml:space="preserve">
<style type="text/css">
	.st0{fill:#0D0F0F;stroke:#252122;stroke-miterlimit:10;}
</style>
<path class="st0" d="M13.9,0.4l-0.1,0L0.5,1.8v24.3L13.7,34L27,26.1V1.8L13.9,0.4z M25.3,25.1L13.7,32L2.2,25.1v-10L13.7,22l0,1.2
	l-7.9-4.7l0,1.2l7.9,4.7l0,1.3l-7.9-4.7l0,1.2l7.9,4.7l8-4.8V21l0,0v-0.4v-0.5v-3l3.6-2.1V25.1z M25.3,13.7l-3.2,1.9l-1.5,0.9
	l-6.9-4.1l0,1.2l5.9,3.5l-0.1,0l-0.1,0.1l-0.8,0.5l-4.9-2.9l0,1.2l3.9,2.3l-0.9,0.6l0,0l-2.9-1.7l0,1.2l1.9,1.1l-2,1.2L2.3,13.8
	L13.7,7v0L25.3,13.7z M25.3,12.5L13.7,5.7v0l0,0l0,0v0L2.2,12.5V3.4l11.5-1.2l11.5,1.2V12.5z"/>
</svg>
